{"glyphs":{"0":{"ha":744,"x_min":58,"x_max":685,"o":"m 372 -12 q 144 109 231 -12 q 58 426 58 231 q 144 744 58 622 q 372 865 231 865 q 599 744 513 865 q 685 426 685 622 q 599 109 685 231 q 372 -12 513 -12 m 550 697 q 517 748 550 697 q 372 800 485 800 q 194 697 260 800 q 129 426 129 593 q 194 156 129 260 q 372 53 260 53 q 550 156 485 53 q 615 426 615 260 q 550 697 615 593 z "},"1":{"ha":458,"x_min":43,"x_max":336,"o":"m 336 854 l 336 0 l 267 0 l 267 769 l 43 654 l 43 728 l 293 854 l 336 854 z "},"2":{"ha":617,"x_min":36,"x_max":581,"o":"m 492 631 q 442 754 492 708 q 314 800 393 800 q 172 745 224 800 q 111 596 121 690 l 40 596 q 124 791 51 717 q 314 865 197 865 q 494 801 428 865 q 561 631 561 736 q 558 595 561 613 q 549 559 556 578 q 536 527 542 540 q 517 494 531 514 q 497 464 503 474 q 471 432 490 454 q 446 403 451 410 q 417 370 440 396 q 389 339 394 344 l 135 65 l 581 65 l 581 0 l 36 0 l 36 49 l 338 376 q 421 469 397 442 q 468 543 444 497 q 492 631 492 589 z "},"3":{"ha":632,"x_min":33,"x_max":582,"o":"m 253 407 l 253 469 l 317 469 q 445 514 394 469 q 496 635 496 558 q 445 755 496 708 q 313 801 394 801 q 184 756 236 801 q 117 632 132 710 l 47 632 q 136 801 64 738 q 313 865 208 865 q 497 801 428 865 q 565 638 565 738 q 521 507 565 563 q 410 439 476 451 q 533 372 485 426 q 582 233 582 317 q 510 58 582 128 q 317 -12 439 -12 q 124 53 199 -12 q 33 229 49 118 l 104 229 q 174 98 119 144 q 317 51 229 51 q 459 101 406 51 q 513 232 513 150 q 456 360 513 313 q 318 407 400 407 l 253 407 z "},"4":{"ha":694,"x_min":29,"x_max":657,"o":"m 438 853 l 110 272 l 429 272 l 429 483 l 497 483 l 497 272 l 657 272 l 657 208 l 497 208 l 497 0 l 429 0 l 429 208 l 29 208 l 29 264 l 364 853 l 438 853 z "},"5":{"ha":639,"x_min":33,"x_max":592,"o":"m 319 478 q 156 397 218 478 l 94 397 l 94 853 l 547 853 l 547 788 l 157 788 l 157 478 q 324 542 224 542 q 515 462 439 542 q 592 264 592 382 q 514 68 592 149 q 319 -12 436 -12 q 128 51 203 -12 q 33 231 53 115 l 104 231 q 319 51 143 51 q 465 113 407 51 q 522 264 522 174 q 465 416 522 354 q 319 478 407 478 z "},"6":{"ha":688,"x_min":58,"x_max":638,"o":"m 208 431 q 178 400 208 431 q 149 272 149 368 q 208 113 149 176 q 360 50 268 50 q 510 113 450 50 q 571 272 571 176 q 510 431 571 368 q 360 494 450 494 q 208 431 268 494 m 621 660 l 550 660 q 365 803 503 803 q 192 701 261 803 q 124 431 124 599 q 126 369 124 389 q 212 503 144 451 q 364 556 279 556 q 559 474 481 556 q 638 274 638 392 q 558 70 638 153 q 360 -12 479 -12 q 108 150 186 -12 q 58 415 58 254 q 145 744 58 624 q 365 865 232 865 q 621 660 567 865 z "},"7":{"ha":596,"x_min":25,"x_max":565,"o":"m 565 796 l 250 0 l 178 0 l 492 788 l 25 788 l 25 853 l 565 853 l 565 796 z "},"8":{"ha":668,"x_min":47,"x_max":621,"o":"m 177 102 q 208 75 177 102 q 333 49 239 49 q 490 103 428 49 q 553 236 553 157 q 490 369 553 315 q 333 424 428 424 q 177 370 239 424 q 115 236 115 317 q 177 102 115 156 m 201 531 q 227 508 201 531 q 333 485 253 485 q 466 531 414 485 q 518 644 518 576 q 467 758 518 713 q 333 804 415 804 q 201 758 253 804 q 150 644 150 713 q 201 531 150 576 m 333 -12 q 128 57 210 -12 q 47 233 47 126 q 96 373 47 313 q 224 454 144 433 q 120 529 158 478 q 82 646 82 581 q 153 803 82 740 q 333 865 225 865 q 515 803 443 865 q 586 646 586 740 q 547 529 586 581 q 444 454 508 478 q 572 373 524 433 q 621 233 621 313 q 540 57 621 126 q 333 -12 458 -12 z "},"9":{"ha":688,"x_min":50,"x_max":629,"o":"m 479 422 q 509 453 479 422 q 539 581 539 485 q 479 740 539 676 q 328 803 419 803 q 177 740 238 803 q 117 581 117 676 q 177 422 117 485 q 328 358 238 358 q 479 422 419 358 m 67 193 l 138 193 q 322 50 185 50 q 495 152 426 50 q 564 422 564 254 q 561 483 564 464 q 476 349 543 401 q 324 297 408 297 q 128 379 207 297 q 50 579 50 461 q 129 783 50 700 q 328 865 208 865 q 579 703 501 865 q 629 438 629 599 q 542 108 629 229 q 322 -12 456 -12 q 67 193 121 -12 z "}," ":{"ha":307,"x_min":0,"x_max":0,"o":""},"!":{"ha":286,"x_min":90,"x_max":194,"o":"m 106 11 q 98 19 106 11 q 90 49 90 26 q 106 87 90 71 q 143 103 121 103 q 179 87 164 103 q 194 49 194 71 q 179 11 194 26 q 143 -4 164 -4 q 106 11 121 -4 m 118 267 l 104 853 l 182 853 l 168 267 l 118 267 z "},"\"":{"ha":307,"x_min":56,"x_max":251,"o":"m 56 581 l 56 853 l 118 853 l 118 581 l 56 581 m 189 581 l 189 853 l 251 853 l 251 581 l 189 581 z "},"#":{"ha":763,"x_min":38,"x_max":725,"o":"m 668 321 l 658 265 l 513 265 l 450 0 l 388 0 l 450 265 l 233 265 l 169 0 l 110 0 l 172 265 l 38 265 l 50 321 l 186 321 l 236 532 l 93 532 l 104 588 l 249 588 l 313 853 l 374 853 l 310 588 l 528 588 l 592 853 l 653 853 l 589 588 l 725 588 l 713 532 l 576 532 l 526 321 l 668 321 m 297 532 l 246 321 l 464 321 l 514 532 l 297 532 z "},"$":{"ha":643,"x_min":38,"x_max":593,"o":"m 294 -118 l 294 19 q 131 77 199 26 q 38 213 63 128 l 110 213 q 326 79 161 79 q 472 121 415 79 q 528 236 528 163 q 392 382 528 344 l 243 424 q 106 494 154 449 q 58 621 58 540 q 125 773 58 715 q 294 835 192 831 l 294 958 l 357 958 l 357 832 q 506 769 447 821 q 586 638 565 718 l 518 638 q 308 775 469 775 q 176 735 228 775 q 124 624 124 694 q 160 535 124 565 q 275 482 197 504 l 406 446 q 593 238 593 393 q 526 85 593 143 q 357 19 460 26 l 357 -118 l 294 -118 z "},"%":{"ha":863,"x_min":51,"x_max":810,"o":"m 125 0 l 678 853 l 738 853 l 185 0 l 125 0 m 108 688 q 143 604 108 639 q 228 569 178 569 q 313 604 278 569 q 347 688 347 639 q 313 773 347 738 q 228 808 278 808 q 143 773 178 808 q 108 688 108 738 m 759 290 q 784 264 759 290 q 810 165 810 239 q 758 40 810 92 q 635 -12 707 -12 q 510 40 561 -12 q 458 165 458 92 q 510 289 458 238 q 635 340 561 340 q 759 290 708 340 m 404 688 q 353 564 404 615 q 228 513 301 513 q 103 563 154 513 q 51 688 51 614 q 103 813 51 761 q 228 865 154 865 q 353 813 301 865 q 404 688 404 761 m 753 165 q 718 249 753 214 q 635 283 683 283 q 550 249 585 283 q 515 165 515 214 q 550 80 515 115 q 635 44 585 44 q 718 80 683 44 q 753 165 753 115 z "},"&":{"ha":781,"x_min":53,"x_max":764,"o":"m 589 658 l 521 658 q 473 767 514 728 q 365 807 432 807 q 254 767 297 807 q 211 656 211 726 q 228 589 211 622 q 260 538 244 556 q 314 478 275 519 l 576 199 q 635 421 631 290 l 700 421 q 619 153 696 269 l 764 0 l 675 0 l 579 101 q 321 -12 475 -12 q 128 61 204 -12 q 53 247 53 135 q 99 391 53 326 q 218 485 144 456 q 144 656 144 572 q 207 808 144 750 q 365 865 269 865 q 523 808 465 865 q 589 658 581 750 m 260 440 q 159 367 199 421 q 119 247 119 313 q 176 105 119 161 q 321 49 233 49 q 539 144 454 49 l 260 440 z "},"'":{"ha":175,"x_min":56,"x_max":119,"o":"m 56 581 l 56 853 l 119 853 l 119 581 l 56 581 z "},"(":{"ha":451,"x_min":42,"x_max":414,"o":"m 142 65 q 92 134 142 65 q 42 393 42 203 q 142 721 42 583 q 414 903 243 858 l 414 833 q 197 683 285 801 q 110 393 110 564 q 197 103 110 222 q 414 -47 285 -15 l 414 -117 q 142 65 243 -72 z "},")":{"ha":451,"x_min":38,"x_max":410,"o":"m 309 721 q 359 652 309 721 q 410 393 410 583 q 309 65 410 203 q 38 -117 208 -72 l 38 -47 q 254 103 167 -15 q 342 393 342 222 q 254 683 342 564 q 38 833 167 801 l 38 903 q 309 721 208 858 z "},"*":{"ha":438,"x_min":43,"x_max":393,"o":"m 174 713 l 43 788 l 67 826 l 196 751 l 196 901 l 242 901 l 242 751 l 371 826 l 393 788 l 263 713 l 393 638 l 371 599 l 242 674 l 242 525 l 196 525 l 196 674 l 67 599 l 43 638 l 174 713 z "},"+":{"ha":714,"x_min":99,"x_max":615,"o":"m 326 667 l 386 667 l 386 439 l 615 439 l 615 379 l 386 379 l 386 151 l 326 151 l 326 379 l 99 379 l 99 439 l 326 439 l 326 667 z "},",":{"ha":196,"x_min":13,"x_max":150,"o":"m 13 -140 l 88 -1 q 46 49 46 7 q 60 86 46 71 q 97 101 75 101 q 135 86 121 101 q 150 46 150 71 q 129 -15 150 21 l 63 -140 l 13 -140 z "},"-":{"ha":446,"x_min":56,"x_max":390,"o":"m 56 329 l 56 393 l 390 393 l 390 329 l 56 329 z "},".":{"ha":196,"x_min":46,"x_max":150,"o":"m 61 11 q 53 19 61 11 q 46 49 46 26 q 61 87 46 71 q 97 103 76 103 q 135 87 119 103 q 150 49 150 71 q 135 11 150 26 q 97 -4 119 -4 q 61 11 76 -4 z "},"/":{"ha":425,"x_min":7,"x_max":418,"o":"m 7 -117 l 351 903 l 418 903 l 74 -117 l 7 -117 z "},":":{"ha":196,"x_min":46,"x_max":150,"o":"m 61 11 q 53 19 61 11 q 46 49 46 26 q 61 87 46 71 q 97 103 76 103 q 135 87 119 103 q 150 49 150 71 q 135 11 150 26 q 97 -4 119 -4 q 61 11 76 -4 m 61 468 q 53 476 61 468 q 46 506 46 483 q 61 544 46 528 q 97 560 76 560 q 135 544 119 560 q 150 506 150 528 q 135 468 150 483 q 97 453 119 453 q 61 468 76 453 z "},";":{"ha":196,"x_min":13,"x_max":150,"o":"m 13 -140 l 88 -1 q 46 49 46 7 q 60 86 46 71 q 97 101 75 101 q 135 86 121 101 q 150 46 150 71 q 129 -15 150 21 l 63 -140 l 13 -140 m 61 468 q 53 476 61 468 q 46 506 46 483 q 61 544 46 528 q 97 560 76 560 q 135 544 119 560 q 150 506 150 528 q 135 468 150 483 q 97 453 119 453 q 61 468 76 453 z "},"<":{"ha":551,"x_min":81,"x_max":461,"o":"m 81 374 l 81 439 l 461 647 l 461 581 l 139 407 l 461 233 l 461 165 l 81 374 z "},"=":{"ha":724,"x_min":104,"x_max":621,"o":"m 104 292 l 104 350 l 621 350 l 621 292 l 104 292 m 104 469 l 104 528 l 621 528 l 621 469 l 104 469 z "},">":{"ha":551,"x_min":90,"x_max":472,"o":"m 472 439 l 472 374 l 90 165 l 90 233 l 413 407 l 90 581 l 90 647 l 472 439 z "},"?":{"ha":586,"x_min":28,"x_max":549,"o":"m 272 11 q 265 19 272 11 q 257 49 257 26 q 272 87 257 71 q 310 103 288 103 q 346 87 331 103 q 361 49 361 71 q 346 11 361 26 q 310 -4 331 -4 q 272 11 288 -4 m 549 633 q 544 596 549 615 q 536 563 540 576 q 519 528 532 549 q 502 499 507 508 q 478 468 497 490 q 456 442 460 446 q 428 413 451 438 q 404 386 406 388 q 344 268 346 324 l 279 268 q 299 347 282 314 q 353 422 315 379 q 385 457 360 431 q 421 497 410 483 q 449 535 432 511 q 472 583 465 560 q 479 633 479 607 q 431 756 479 711 q 301 800 382 800 q 162 746 214 800 q 100 599 110 692 l 28 599 q 113 792 39 719 q 301 865 186 865 q 482 802 415 865 q 549 633 549 739 z "},"@":{"ha":1075,"x_min":51,"x_max":1024,"o":"m 761 528 l 699 174 q 765 90 685 90 q 908 165 851 90 q 965 372 965 240 q 855 625 965 526 q 569 724 744 724 q 239 590 367 724 q 111 258 111 457 q 150 68 111 151 q 256 -63 189 -15 q 402 -135 322 -111 q 571 -160 482 -160 q 863 -97 732 -160 l 863 -154 q 571 -214 726 -214 q 377 -186 468 -214 q 212 -103 286 -158 q 94 46 138 -47 q 51 258 51 139 q 197 629 51 478 q 569 781 342 781 q 897 665 771 781 q 1024 372 1024 549 q 946 124 1024 213 q 758 36 868 36 q 675 59 710 36 q 633 122 640 82 q 567 64 608 88 q 482 40 525 40 q 349 97 396 40 q 301 243 301 154 q 372 450 301 361 q 553 539 443 539 q 635 515 600 539 q 688 460 671 492 l 700 528 l 761 528 m 640 194 l 674 388 q 556 481 639 481 q 419 408 472 481 q 365 244 365 336 q 399 137 365 176 q 490 97 433 97 q 640 194 574 97 z "},"A":{"ha":804,"x_min":32,"x_max":772,"o":"m 369 853 l 435 853 l 772 0 l 701 0 l 590 281 l 213 281 l 103 0 l 32 0 l 369 853 m 401 761 l 238 344 l 565 344 l 401 761 z "},"B":{"ha":726,"x_min":110,"x_max":675,"o":"m 503 442 q 628 370 581 428 q 675 235 675 313 q 601 61 675 122 q 397 0 528 0 l 110 0 l 110 853 l 371 853 q 572 796 501 853 q 643 632 643 739 q 503 442 643 483 m 179 469 l 371 469 q 574 629 574 469 q 371 789 574 789 l 179 789 l 179 469 m 179 408 l 179 64 l 401 64 q 552 110 500 64 q 604 236 604 157 q 552 362 604 315 q 401 408 500 408 l 179 408 z "},"C":{"ha":799,"x_min":54,"x_max":744,"o":"m 161 108 q 108 168 161 108 q 54 426 54 228 q 161 745 54 625 q 429 865 268 865 q 635 799 551 865 q 744 621 718 733 l 675 621 q 584 751 647 704 q 429 799 521 799 q 210 697 294 799 q 126 426 126 596 q 211 156 126 257 q 429 54 296 54 q 584 101 521 54 q 675 232 647 149 l 744 232 q 634 53 718 119 q 429 -12 550 -12 q 161 108 268 -12 z "},"D":{"ha":836,"x_min":110,"x_max":783,"o":"m 181 65 l 369 65 q 619 164 526 65 q 711 426 711 263 q 619 689 711 590 q 369 788 526 788 l 181 788 l 181 65 m 110 0 l 110 853 l 369 853 q 669 737 556 853 q 783 426 783 621 q 669 116 783 232 q 369 0 556 0 l 110 0 z "},"E":{"ha":715,"x_min":110,"x_max":639,"o":"m 110 853 l 639 853 l 639 788 l 179 788 l 179 472 l 596 472 l 596 407 l 179 407 l 179 65 l 639 65 l 639 0 l 110 0 l 110 853 z "},"F":{"ha":657,"x_min":110,"x_max":604,"o":"m 181 0 l 110 0 l 110 853 l 604 853 l 604 788 l 181 788 l 181 463 l 582 463 l 582 399 l 181 399 l 181 0 z "},"G":{"ha":831,"x_min":54,"x_max":778,"o":"m 710 338 l 488 338 l 488 400 l 778 400 l 778 350 q 685 87 778 186 q 436 -12 592 -12 q 163 108 272 -12 q 54 426 54 228 q 163 745 54 625 q 435 865 272 865 q 643 799 558 865 q 756 621 728 733 l 685 621 q 435 799 624 799 q 213 697 299 799 q 126 426 126 596 q 213 154 126 256 q 436 53 299 53 q 633 128 563 53 q 710 338 704 203 z "},"H":{"ha":901,"x_min":110,"x_max":792,"o":"m 721 853 l 792 853 l 792 0 l 721 0 l 721 407 l 181 407 l 181 0 l 110 0 l 110 853 l 181 853 l 181 472 l 721 472 l 721 853 z "},"I":{"ha":290,"x_min":110,"x_max":181,"o":"m 181 853 l 181 0 l 110 0 l 110 853 l 181 853 z "},"J":{"ha":656,"x_min":26,"x_max":563,"o":"m 26 236 l 100 236 q 161 103 110 153 q 294 54 213 54 q 438 108 383 54 q 492 271 492 161 l 492 853 l 563 853 l 563 271 q 488 60 563 133 q 296 -12 414 -12 q 108 55 181 -12 q 26 236 35 122 z "},"K":{"ha":756,"x_min":110,"x_max":731,"o":"m 181 853 l 181 406 l 625 853 l 717 853 l 328 464 l 731 0 l 642 0 l 276 415 l 181 318 l 181 0 l 110 0 l 110 853 l 181 853 z "},"L":{"ha":699,"x_min":110,"x_max":643,"o":"m 110 0 l 110 853 l 181 853 l 181 65 l 643 65 l 643 0 l 110 0 z "},"M":{"ha":1013,"x_min":110,"x_max":903,"o":"m 529 0 l 485 0 l 178 713 l 178 0 l 110 0 l 110 853 l 188 853 l 508 104 l 829 853 l 903 853 l 903 0 l 835 0 l 835 713 l 529 0 z "},"N":{"ha":856,"x_min":110,"x_max":746,"o":"m 746 853 l 746 0 l 699 0 l 178 740 l 178 0 l 110 0 l 110 853 l 178 853 l 678 142 l 678 853 l 746 853 z "},"O":{"ha":861,"x_min":54,"x_max":808,"o":"m 702 743 q 755 682 702 743 q 808 426 808 621 q 702 110 808 232 q 431 -12 596 -12 q 160 110 267 -12 q 54 426 54 232 q 160 743 54 621 q 431 865 267 865 q 702 743 596 865 m 651 158 q 694 209 651 158 q 736 426 736 261 q 651 695 736 592 q 431 799 567 799 q 211 695 296 799 q 126 426 126 592 q 211 158 126 261 q 431 54 296 54 q 651 158 567 54 z "},"P":{"ha":735,"x_min":110,"x_max":688,"o":"m 418 368 l 181 368 l 181 0 l 110 0 l 110 853 l 418 853 q 616 790 544 853 q 688 611 688 728 q 616 431 688 493 q 418 368 544 368 m 565 480 q 591 503 565 480 q 617 611 617 526 q 565 742 617 696 q 415 789 513 789 l 181 789 l 181 433 l 415 433 q 565 480 514 433 z "},"Q":{"ha":861,"x_min":54,"x_max":808,"o":"m 700 -44 l 629 46 q 431 -12 544 -12 q 160 110 267 -12 q 54 426 54 232 q 160 743 54 621 q 431 865 267 865 q 702 743 596 865 q 808 426 808 621 q 678 85 808 211 l 747 -6 l 700 -44 m 736 426 q 651 695 736 592 q 431 799 567 799 q 211 695 296 799 q 126 426 126 592 q 211 158 126 261 q 431 54 296 54 q 589 99 519 54 l 517 192 l 565 229 l 636 138 q 736 426 736 238 z "},"R":{"ha":763,"x_min":110,"x_max":719,"o":"m 385 376 l 181 376 l 181 0 l 110 0 l 110 853 l 411 853 q 608 791 538 853 q 679 614 679 729 q 622 451 679 511 q 463 379 565 392 l 719 0 l 638 0 l 385 376 m 181 789 l 181 439 l 408 439 q 558 485 506 439 q 610 614 610 531 q 558 744 610 699 q 408 789 506 789 l 181 789 z "},"S":{"ha":690,"x_min":36,"x_max":633,"o":"m 36 208 l 110 208 q 199 92 135 132 q 351 51 263 51 q 505 97 446 51 q 564 222 564 143 q 417 381 564 339 l 254 426 q 108 501 157 453 q 58 635 58 549 q 136 803 58 740 q 328 865 214 865 q 525 808 449 865 q 628 651 601 750 l 557 651 q 328 801 504 801 q 184 758 242 801 q 126 639 126 714 q 165 543 126 575 q 289 488 203 511 l 432 446 q 585 363 536 417 q 633 225 633 310 q 554 51 633 115 q 351 -12 475 -12 q 147 46 232 -12 q 36 208 61 104 z "},"T":{"ha":781,"x_min":43,"x_max":738,"o":"m 43 788 l 43 853 l 738 853 l 738 788 l 425 788 l 425 0 l 354 0 l 354 788 l 43 788 z "},"U":{"ha":840,"x_min":93,"x_max":747,"o":"m 656 77 q 610 32 656 77 q 419 -12 564 -12 q 184 77 275 -12 q 93 336 93 167 l 93 853 l 164 853 l 164 346 q 234 127 164 201 q 419 53 304 53 q 606 127 535 53 q 676 346 676 201 l 676 853 l 747 853 l 747 336 q 656 77 747 167 z "},"V":{"ha":801,"x_min":32,"x_max":769,"o":"m 432 0 l 368 0 l 32 853 l 106 853 l 400 97 l 697 853 l 769 853 l 432 0 z "},"W":{"ha":1054,"x_min":31,"x_max":1024,"o":"m 499 853 l 557 853 l 757 119 l 954 853 l 1024 853 l 792 0 l 728 0 l 526 726 l 326 0 l 264 0 l 31 853 l 101 853 l 299 119 l 499 853 z "},"X":{"ha":750,"x_min":33,"x_max":718,"o":"m 707 853 l 415 433 l 718 0 l 638 0 l 374 376 l 111 0 l 33 0 l 335 432 l 42 853 l 122 853 l 375 489 l 629 853 l 707 853 z "},"Y":{"ha":743,"x_min":26,"x_max":718,"o":"m 374 429 l 642 853 l 718 853 l 407 364 l 407 0 l 336 0 l 336 364 l 26 853 l 104 853 l 374 429 z "},"Z":{"ha":721,"x_min":51,"x_max":665,"o":"m 665 65 l 665 0 l 51 0 l 51 54 l 572 788 l 58 788 l 58 853 l 660 853 l 660 799 l 140 65 l 665 65 z "},"[":{"ha":432,"x_min":110,"x_max":394,"o":"m 175 840 l 175 -54 l 394 -54 l 394 -117 l 110 -117 l 110 903 l 394 903 l 394 840 l 175 840 z "},"\\":{"ha":425,"x_min":7,"x_max":418,"o":"m 74 903 l 418 -117 l 351 -117 l 7 903 l 74 903 z "},"]":{"ha":432,"x_min":38,"x_max":322,"o":"m 257 -54 l 257 840 l 38 840 l 38 903 l 322 903 l 322 -117 l 38 -117 l 38 -54 l 257 -54 z "},"^":{"ha":446,"x_min":35,"x_max":411,"o":"m 193 853 l 253 853 l 411 601 l 338 601 l 222 781 l 108 601 l 35 601 l 193 853 z "},"_":{"ha":489,"x_min":28,"x_max":461,"o":"m 28 -122 l 28 -58 l 461 -58 l 461 -122 l 28 -122 z "},"`":{"ha":694,"x_min":253,"x_max":442,"o":"m 442 722 l 374 722 l 253 903 l 326 903 l 442 722 z "},"a":{"ha":610,"x_min":53,"x_max":518,"o":"m 518 0 l 451 0 l 451 58 q 382 11 429 32 q 281 -10 335 -10 q 118 42 183 -10 q 53 181 53 94 q 119 317 53 264 q 283 369 186 369 q 381 349 333 369 q 451 304 428 329 l 451 414 q 410 526 451 483 q 297 568 369 568 q 147 463 182 568 l 79 463 q 156 585 97 540 q 297 629 215 629 q 459 572 400 629 q 518 417 518 514 l 518 0 m 451 140 l 451 219 q 390 285 436 260 q 288 311 343 311 q 167 277 217 311 q 118 181 118 243 q 167 83 118 118 q 288 49 217 49 q 390 74 343 49 q 451 140 436 100 z "},"b":{"ha":683,"x_min":100,"x_max":629,"o":"m 168 92 l 168 0 l 100 0 l 100 903 l 168 903 l 168 525 q 248 599 196 568 q 360 629 300 629 q 560 537 490 629 q 629 308 629 444 q 560 80 629 172 q 360 -12 490 -12 q 248 18 300 -12 q 168 92 196 49 m 168 443 l 168 174 q 248 83 199 115 q 354 51 297 51 q 504 123 449 51 q 560 308 560 194 q 504 494 560 422 q 354 565 449 565 q 248 533 297 565 q 168 443 199 501 z "},"c":{"ha":614,"x_min":54,"x_max":563,"o":"m 129 76 q 92 121 129 76 q 54 308 54 165 q 129 540 54 451 q 326 629 204 629 q 484 577 422 629 q 563 438 546 525 l 492 438 q 435 533 478 499 q 326 567 392 567 q 180 496 236 567 q 124 308 124 425 q 180 121 124 192 q 326 50 236 50 q 435 84 392 50 q 492 179 478 118 l 563 179 q 484 40 546 92 q 326 -12 422 -12 q 129 76 204 -12 z "},"d":{"ha":683,"x_min":54,"x_max":583,"o":"m 515 0 l 515 92 q 435 18 488 49 q 324 -12 383 -12 q 124 80 193 -12 q 54 308 54 172 q 124 537 54 444 q 324 629 193 629 q 435 599 383 629 q 515 525 488 568 l 515 903 l 583 903 l 583 0 l 515 0 m 515 174 l 515 443 q 435 533 485 501 q 329 565 386 565 q 179 494 235 565 q 124 308 124 422 q 179 123 124 194 q 329 51 235 51 q 435 83 386 51 q 515 174 485 115 z "},"e":{"ha":629,"x_min":54,"x_max":576,"o":"m 500 179 l 567 179 q 485 40 549 92 q 328 -12 422 -12 q 130 76 206 -12 q 54 308 54 165 q 128 539 54 449 q 326 629 203 629 q 511 547 446 629 q 576 328 576 464 l 576 303 l 122 303 q 181 117 124 186 q 328 49 238 49 q 440 83 393 49 q 500 179 486 118 m 326 568 q 190 511 243 568 q 125 357 136 454 l 507 357 q 458 507 504 446 q 326 568 413 568 z "},"f":{"ha":358,"x_min":31,"x_max":374,"o":"m 374 903 l 374 839 q 311 854 346 854 q 230 819 261 854 q 199 721 199 783 l 199 617 l 343 617 l 343 557 l 199 557 l 199 0 l 131 0 l 131 557 l 31 557 l 31 617 l 131 617 l 131 728 q 179 863 131 811 q 304 915 228 915 q 374 903 342 915 z "},"g":{"ha":678,"x_min":54,"x_max":579,"o":"m 510 40 l 510 106 q 431 33 482 63 q 319 4 379 4 q 123 94 192 4 q 54 317 54 185 q 123 539 54 449 q 319 629 192 629 q 431 599 379 629 q 510 526 482 569 l 510 617 l 579 617 l 579 44 q 509 -173 579 -97 q 319 -249 439 -249 q 149 -199 214 -249 q 67 -61 83 -150 l 136 -61 q 319 -189 167 -189 q 460 -131 411 -189 q 510 40 510 -72 m 510 186 l 510 446 q 431 534 479 503 q 326 565 383 565 q 178 497 232 565 q 124 317 124 428 q 178 135 124 204 q 326 67 232 67 q 431 98 383 67 q 510 186 479 129 z "},"h":{"ha":671,"x_min":99,"x_max":579,"o":"m 99 0 l 99 903 l 168 903 l 168 518 q 251 597 199 565 q 365 629 303 629 q 524 569 468 629 q 579 408 579 508 l 579 0 l 511 0 l 511 399 q 472 519 511 474 q 353 565 432 565 q 242 528 292 565 q 168 432 192 490 l 168 0 l 99 0 z "},"i":{"ha":267,"x_min":86,"x_max":181,"o":"m 168 617 l 168 0 l 99 0 l 99 617 l 168 617 m 167 838 q 174 831 167 838 q 181 804 181 824 q 167 771 181 785 q 133 757 153 757 q 100 771 114 757 q 86 804 86 785 q 100 838 86 824 q 133 851 114 851 q 167 838 153 851 z "},"j":{"ha":267,"x_min":-19,"x_max":181,"o":"m 168 617 l 168 -89 q 127 -208 168 -167 q 13 -249 86 -249 q -19 -244 -10 -249 l -19 -183 q 8 -187 -8 -187 q 76 -165 54 -187 q 99 -82 99 -142 l 99 617 l 168 617 m 167 838 q 174 831 167 838 q 181 804 181 824 q 167 771 181 785 q 133 757 153 757 q 100 771 114 757 q 86 804 86 785 q 100 838 86 824 q 133 851 114 851 q 167 838 153 851 z "},"k":{"ha":619,"x_min":99,"x_max":596,"o":"m 511 0 l 243 308 l 168 239 l 168 0 l 99 0 l 99 903 l 168 903 l 168 319 l 494 617 l 586 617 l 293 351 l 596 0 l 511 0 z "},"l":{"ha":267,"x_min":99,"x_max":168,"o":"m 168 903 l 168 0 l 99 0 l 99 903 l 168 903 z "},"m":{"ha":990,"x_min":99,"x_max":897,"o":"m 518 511 q 597 595 546 561 q 710 629 649 629 q 849 571 800 629 q 897 417 897 513 l 897 0 l 829 0 l 829 407 q 796 523 829 481 q 697 565 763 565 q 597 529 642 565 q 533 436 553 493 l 533 0 l 464 0 l 464 407 q 431 523 464 481 q 332 565 397 565 q 232 529 276 565 q 168 436 188 493 l 168 0 l 99 0 l 99 617 l 168 617 l 168 522 q 240 599 193 569 q 346 629 286 629 q 518 511 475 629 z "},"n":{"ha":671,"x_min":99,"x_max":579,"o":"m 99 0 l 99 617 l 168 617 l 168 518 q 251 597 199 565 q 365 629 303 629 q 524 569 468 629 q 579 408 579 508 l 579 0 l 511 0 l 511 399 q 472 519 511 474 q 353 565 432 565 q 242 528 292 565 q 168 432 192 490 l 168 0 l 99 0 z "},"o":{"ha":654,"x_min":54,"x_max":600,"o":"m 524 540 q 562 496 524 540 q 600 308 600 451 q 524 76 600 165 q 326 -12 449 -12 q 129 76 204 -12 q 54 308 54 165 q 129 540 54 451 q 326 629 204 629 q 524 540 449 629 m 475 120 q 503 156 475 120 q 531 308 531 192 q 475 497 531 425 q 326 568 419 568 q 179 497 235 568 q 124 308 124 425 q 179 120 124 192 q 326 49 235 49 q 475 120 419 49 z "},"p":{"ha":683,"x_min":99,"x_max":629,"o":"m 168 92 l 168 -236 l 99 -236 l 99 617 l 168 617 l 168 525 q 248 599 196 568 q 360 629 300 629 q 559 537 489 629 q 629 308 629 444 q 559 80 629 172 q 360 -12 489 -12 q 248 18 300 -12 q 168 92 196 49 m 168 443 l 168 174 q 353 51 232 51 q 504 123 449 51 q 560 308 560 194 q 504 494 560 422 q 353 565 449 565 q 168 443 232 565 z "},"q":{"ha":683,"x_min":54,"x_max":585,"o":"m 515 -236 l 515 92 q 435 18 488 49 q 324 -12 383 -12 q 124 80 194 -12 q 54 308 54 172 q 124 537 54 444 q 324 629 194 629 q 435 599 383 629 q 515 525 488 568 l 515 617 l 585 617 l 585 -236 l 515 -236 m 515 174 l 515 443 q 331 565 451 565 q 179 494 235 565 q 124 308 124 422 q 179 123 124 194 q 331 51 235 51 q 515 174 451 51 z "},"r":{"ha":418,"x_min":99,"x_max":389,"o":"m 389 621 l 389 553 q 332 564 363 564 q 233 528 276 564 q 168 431 190 492 l 168 0 l 99 0 l 99 617 l 168 617 l 168 518 q 235 598 190 567 q 335 629 279 629 q 389 621 361 629 z "},"s":{"ha":554,"x_min":42,"x_max":500,"o":"m 42 160 l 111 160 q 283 47 149 47 q 392 76 350 47 q 433 161 433 106 q 319 271 433 239 l 204 303 q 58 458 58 342 q 118 583 58 536 q 267 629 178 629 q 420 585 361 629 q 496 461 479 540 l 428 461 q 267 569 392 569 q 165 541 206 569 q 125 461 125 513 q 151 399 125 419 q 236 361 176 378 l 346 331 q 500 163 500 290 q 439 34 500 81 q 282 -12 378 -12 q 122 33 188 -12 q 42 160 56 79 z "},"t":{"ha":413,"x_min":22,"x_max":368,"o":"m 126 143 l 126 557 l 22 557 l 22 617 l 126 617 l 126 775 l 194 775 l 194 617 l 354 617 l 354 557 l 194 557 l 194 150 q 283 50 194 50 q 368 74 328 50 l 368 8 q 276 -12 329 -12 q 167 27 207 -12 q 126 143 126 67 z "},"u":{"ha":668,"x_min":92,"x_max":569,"o":"m 569 617 l 569 0 l 501 0 l 501 99 q 419 19 471 51 q 306 -12 368 -12 q 147 48 203 -12 q 92 208 92 108 l 92 617 l 160 617 l 160 218 q 199 97 160 143 q 318 51 239 51 q 428 89 379 51 q 501 185 478 126 l 501 617 l 569 617 z "},"v":{"ha":600,"x_min":25,"x_max":575,"o":"m 331 0 l 271 0 l 25 617 l 99 617 l 301 96 l 504 617 l 575 617 l 331 0 z "},"w":{"ha":839,"x_min":25,"x_max":814,"o":"m 449 617 l 596 108 l 747 617 l 814 617 l 628 0 l 568 0 l 419 510 l 271 0 l 211 0 l 25 617 l 93 617 l 244 108 l 392 617 l 449 617 z "},"x":{"ha":599,"x_min":33,"x_max":565,"o":"m 556 617 l 338 317 l 565 0 l 489 0 l 299 264 l 107 0 l 33 0 l 261 314 l 43 617 l 119 617 l 300 365 l 482 617 l 556 617 z "},"y":{"ha":600,"x_min":25,"x_max":575,"o":"m 236 -236 l 167 -236 l 267 8 l 25 617 l 99 617 l 301 94 l 504 617 l 575 617 l 236 -236 z "},"z":{"ha":578,"x_min":54,"x_max":521,"o":"m 521 60 l 521 0 l 54 0 l 54 49 l 431 557 l 61 557 l 61 617 l 517 617 l 517 568 l 142 60 l 521 60 z "},"{":{"ha":464,"x_min":28,"x_max":426,"o":"m 211 296 l 211 8 q 269 -54 211 -54 l 426 -54 l 426 -117 l 271 -117 q 180 -81 215 -117 q 144 13 144 -44 l 144 299 q 86 361 144 361 l 28 361 l 28 425 l 86 425 q 144 488 144 425 l 144 774 q 180 867 144 831 q 271 903 215 903 l 426 903 l 426 840 l 269 840 q 211 778 211 840 l 211 490 q 156 393 211 426 q 211 296 211 357 z "},"|":{"ha":285,"x_min":110,"x_max":175,"o":"m 110 -117 l 110 903 l 175 903 l 175 -117 l 110 -117 z "},"}":{"ha":464,"x_min":38,"x_max":436,"o":"m 253 8 l 253 296 q 308 393 253 357 q 253 490 253 426 l 253 778 q 194 840 253 840 l 38 840 l 38 903 l 193 903 q 284 867 249 903 q 319 774 319 831 l 319 488 q 378 425 319 425 l 436 425 l 436 361 l 378 361 q 319 299 319 361 l 319 13 q 284 -81 319 -44 q 193 -117 249 -117 l 38 -117 l 38 -54 l 194 -54 q 253 8 253 -54 z "},"~":{"ha":564,"x_min":56,"x_max":508,"o":"m 446 457 l 508 457 q 476 341 508 383 q 385 299 443 299 q 276 349 336 299 q 188 399 217 399 q 136 373 154 399 q 118 304 118 347 l 56 304 q 89 419 56 376 q 181 461 122 461 q 288 412 228 461 q 378 363 347 363 q 446 457 446 363 z "}," ":{"ha":307,"x_min":0,"x_max":0,"o":""},"¡":{"ha":290,"x_min":90,"x_max":194,"o":"m 106 633 q 98 641 106 633 q 90 671 90 649 q 106 708 90 693 q 143 724 121 724 q 179 708 164 724 q 194 671 194 693 q 179 633 194 649 q 143 617 164 617 q 106 633 121 617 m 104 -133 l 118 453 l 168 453 l 182 -133 l 104 -133 z "},"¢":{"ha":614,"x_min":54,"x_max":563,"o":"m 54 322 q 122 546 54 458 q 303 642 190 633 l 303 761 l 365 761 l 365 640 q 495 579 444 631 q 563 449 546 528 l 492 449 q 435 546 478 511 q 326 581 392 581 q 180 510 236 581 q 124 322 124 439 q 180 135 124 206 q 326 64 236 64 q 435 99 392 64 q 492 196 478 133 l 563 196 q 495 64 546 115 q 365 3 444 13 l 365 -117 l 303 -117 l 303 1 q 122 98 190 11 q 54 322 54 185 z "},"£":{"ha":671,"x_min":43,"x_max":632,"o":"m 235 588 l 235 449 l 469 449 l 469 392 l 235 392 l 235 189 q 201 63 235 107 l 628 63 l 628 0 l 43 0 l 43 63 l 133 63 q 168 189 168 115 l 168 392 l 43 392 l 43 449 l 168 449 l 168 588 q 234 790 168 715 q 408 865 300 865 q 558 815 501 865 q 632 681 615 765 l 564 681 q 408 803 538 803 q 282 747 329 803 q 235 588 235 690 z "},"¥":{"ha":717,"x_min":40,"x_max":676,"o":"m 106 364 l 106 421 l 306 421 l 40 853 l 118 853 l 360 453 l 601 853 l 676 853 l 411 421 l 611 421 l 611 364 l 393 364 l 393 257 l 611 257 l 611 200 l 393 200 l 393 0 l 324 0 l 324 200 l 106 200 l 106 257 l 324 257 l 324 364 l 106 364 z "},"§":{"ha":615,"x_min":38,"x_max":578,"o":"m 485 119 q 508 28 508 81 q 451 -96 508 -50 q 306 -142 393 -142 q 151 -96 211 -142 q 76 31 92 -50 l 144 31 q 306 -83 178 -83 q 403 -54 365 -83 q 442 26 442 -25 q 426 88 442 67 q 367 139 410 108 l 164 278 q 69 358 100 321 q 38 451 38 396 q 132 601 38 551 q 107 694 107 640 q 165 819 107 774 q 310 865 222 865 q 463 819 404 865 q 539 692 522 772 l 471 692 q 310 806 438 806 q 212 777 250 806 q 174 697 174 749 q 190 635 174 657 q 249 583 206 614 l 451 446 q 547 365 515 403 q 578 271 578 326 q 552 181 578 221 q 485 119 526 140 m 200 333 l 440 167 q 513 269 513 196 q 497 318 513 294 q 467 354 482 342 q 417 390 451 367 l 175 556 q 104 453 104 528 q 128 391 104 417 q 200 333 151 365 z "},"¨":{"ha":694,"x_min":215,"x_max":479,"o":"m 228 760 q 222 767 228 760 q 215 793 215 774 q 228 825 215 813 q 261 838 242 838 q 293 824 281 838 q 306 793 306 811 q 293 760 306 774 q 261 747 281 747 q 228 760 242 747 m 389 793 q 401 824 389 811 q 433 838 414 838 q 466 824 453 838 q 479 793 479 811 q 466 760 479 774 q 433 747 453 747 q 401 760 414 747 q 389 793 389 774 z "},"©":{"ha":983,"x_min":54,"x_max":931,"o":"m 803 740 q 867 678 803 740 q 931 426 931 615 q 803 113 931 238 q 492 -12 675 -12 q 182 113 310 -12 q 54 426 54 238 q 182 740 54 615 q 492 865 310 865 q 803 740 675 865 m 772 144 q 829 201 772 144 q 886 426 886 257 q 772 708 886 596 q 492 821 657 821 q 212 708 326 821 q 97 426 97 596 q 212 144 97 257 q 492 32 326 32 q 772 144 657 32 m 324 229 q 289 267 324 229 q 254 429 254 306 q 324 629 254 553 q 499 706 393 706 q 635 661 581 706 q 707 542 690 617 l 639 542 q 499 643 606 643 q 372 584 421 643 q 322 429 322 525 q 372 274 322 333 q 499 215 421 215 q 639 317 606 215 l 707 317 q 635 197 690 242 q 499 153 581 153 q 324 229 393 153 z "},"ª":{"ha":394,"x_min":24,"x_max":346,"o":"m 346 446 l 286 446 l 286 481 q 240 452 272 465 q 175 439 208 439 q 67 474 111 439 q 24 567 24 508 q 68 659 24 624 q 178 694 113 694 q 286 654 243 694 l 286 718 q 261 785 286 760 q 192 811 236 811 q 101 749 122 811 l 42 749 q 94 833 53 801 q 194 864 135 864 q 306 825 265 864 q 346 719 346 786 l 346 446 m 286 543 l 286 590 q 248 629 276 614 q 186 644 219 644 q 114 624 143 644 q 85 568 85 604 q 115 510 85 531 q 186 489 144 489 q 248 504 219 489 q 286 543 276 519 z "},"«":{"ha":436,"x_min":35,"x_max":401,"o":"m 231 119 l 163 119 l 35 308 l 163 497 l 231 497 l 103 308 l 231 119 m 401 119 l 333 119 l 206 308 l 333 497 l 401 497 l 274 308 l 401 119 z "},"®":{"ha":581,"x_min":39,"x_max":542,"o":"m 468 792 q 505 756 468 792 q 542 611 542 719 q 468 430 542 503 q 290 357 394 357 q 113 430 186 357 q 39 611 39 503 q 113 792 39 719 q 290 865 186 865 q 468 792 394 865 m 441 456 q 472 487 441 456 q 503 611 503 518 q 441 765 503 704 q 290 826 379 826 q 140 765 201 826 q 78 611 78 704 q 140 456 78 518 q 290 394 201 394 q 441 456 379 394 m 285 583 l 243 583 l 243 481 l 197 481 l 197 747 l 306 747 q 373 725 347 747 q 399 665 399 703 q 335 586 399 600 l 408 481 l 354 481 l 285 583 m 340 637 q 347 643 340 637 q 353 665 353 649 q 340 694 353 682 q 307 706 328 706 l 243 706 l 243 625 l 307 625 q 340 637 328 625 z "},"¯":{"ha":694,"x_min":207,"x_max":486,"o":"m 207 746 l 207 803 l 486 803 l 486 746 l 207 746 z "},"°":{"ha":439,"x_min":63,"x_max":376,"o":"m 148 779 q 133 764 148 779 q 118 706 118 749 q 148 633 118 663 q 219 603 178 603 q 292 633 263 603 q 322 706 322 663 q 292 779 322 749 q 219 810 263 810 q 148 779 178 810 m 376 706 q 331 594 376 640 q 219 547 285 547 q 108 594 154 547 q 63 706 63 640 q 108 819 63 772 q 219 865 154 865 q 331 819 285 865 q 376 706 376 772 z "},"±":{"ha":717,"x_min":101,"x_max":615,"o":"m 329 688 l 388 688 l 388 513 l 615 513 l 615 454 l 388 454 l 388 279 l 329 279 l 329 454 l 101 454 l 101 513 l 329 513 l 329 688 m 101 144 l 101 204 l 615 204 l 615 144 l 101 144 z "},"²":{"ha":365,"x_min":32,"x_max":328,"o":"m 264 729 q 242 785 264 764 q 183 806 219 806 q 121 781 144 806 q 94 714 97 756 l 32 714 q 79 820 39 779 q 183 861 119 861 q 285 825 247 861 q 324 729 324 789 q 308 672 324 701 q 280 628 292 642 q 233 576 268 614 l 114 449 l 328 449 l 328 396 l 32 396 l 32 436 l 188 606 q 228 651 215 636 q 253 688 242 667 q 264 729 264 710 z "},"³":{"ha":375,"x_min":29,"x_max":338,"o":"m 153 606 l 153 654 l 186 654 q 247 675 222 654 q 271 732 271 696 q 247 785 271 764 q 186 807 224 807 q 128 785 151 807 q 97 728 104 764 l 38 728 q 86 824 46 786 q 186 861 126 861 q 290 826 251 861 q 329 733 329 790 q 308 668 329 697 q 254 631 286 639 q 315 592 292 621 q 338 525 338 564 q 297 428 338 467 q 188 389 257 389 q 78 426 121 389 q 29 525 36 463 l 92 525 q 189 442 106 442 q 253 464 229 442 q 278 525 278 486 q 252 583 278 561 q 188 606 226 606 l 153 606 z "},"´":{"ha":694,"x_min":253,"x_max":442,"o":"m 321 722 l 253 722 l 368 903 l 442 903 l 321 722 z "},"¶":{"ha":619,"x_min":25,"x_max":510,"o":"m 450 -125 l 450 853 l 510 853 l 510 -125 l 450 -125 m 296 -125 l 296 471 q 106 519 188 471 q 25 663 25 568 q 106 804 25 756 q 296 853 188 853 l 357 853 l 357 -125 l 296 -125 z "},"·":{"ha":210,"x_min":53,"x_max":157,"o":"m 68 325 q 60 333 68 325 q 53 363 53 340 q 68 401 53 385 q 104 417 83 417 q 142 401 126 417 q 157 363 157 385 q 142 325 157 340 q 104 310 126 310 q 68 325 83 310 z "},"¸":{"ha":694,"x_min":271,"x_max":419,"o":"m 335 -243 l 271 -243 l 353 -67 l 419 -67 l 335 -243 z "},"¹":{"ha":286,"x_min":26,"x_max":206,"o":"m 206 854 l 206 396 l 146 396 l 146 783 l 26 722 l 26 785 l 167 854 l 206 854 z "},"º":{"ha":422,"x_min":24,"x_max":397,"o":"m 347 806 q 372 776 347 806 q 397 651 397 747 q 346 497 397 556 q 211 438 294 438 q 75 497 126 438 q 24 651 24 556 q 75 805 24 746 q 211 864 126 864 q 347 806 296 864 m 301 537 q 318 559 301 537 q 335 651 335 581 q 301 766 335 722 q 211 810 267 810 q 122 766 156 810 q 88 651 88 722 q 122 537 88 581 q 211 493 156 493 q 301 537 267 493 z "},"»":{"ha":436,"x_min":35,"x_max":401,"o":"m 274 119 l 206 119 l 333 308 l 206 497 l 274 497 l 401 308 l 274 119 m 103 119 l 35 119 l 163 308 l 35 497 l 103 497 l 231 308 l 103 119 z "},"¼":{"ha":893,"x_min":65,"x_max":825,"o":"m 749 853 l 169 0 l 107 0 l 686 853 l 749 853 m 246 854 l 246 396 l 185 396 l 185 783 l 65 722 l 65 785 l 207 854 l 246 854 m 710 458 l 546 156 l 690 156 l 690 260 l 744 260 l 744 156 l 825 156 l 825 104 l 744 104 l 744 0 l 690 0 l 690 104 l 479 104 l 479 150 l 649 458 l 710 458 z "},"½":{"ha":907,"x_min":65,"x_max":831,"o":"m 749 853 l 169 0 l 107 0 l 686 853 l 749 853 m 246 854 l 246 396 l 185 396 l 185 783 l 65 722 l 65 785 l 207 854 l 246 854 m 765 333 q 744 390 765 369 q 686 411 722 411 q 623 385 647 411 q 596 318 599 360 l 533 318 q 581 425 540 385 q 686 465 622 465 q 788 429 750 465 q 826 335 826 393 q 810 276 826 307 q 782 233 793 244 q 735 181 771 221 l 615 54 l 831 54 l 831 0 l 533 0 l 533 42 l 690 210 q 731 256 718 240 q 754 292 743 271 q 765 333 765 314 z "},"¾":{"ha":951,"x_min":65,"x_max":882,"o":"m 807 853 l 228 0 l 164 0 l 743 853 l 807 853 m 189 604 l 189 653 l 222 653 q 283 674 258 653 q 307 731 307 694 q 283 785 307 764 q 222 807 260 807 q 164 785 188 807 q 133 726 140 763 l 74 726 q 122 823 82 786 q 222 860 163 860 q 326 824 288 860 q 365 732 365 789 q 344 666 365 694 q 290 629 322 638 q 351 592 328 619 q 374 524 374 564 q 333 426 374 465 q 224 388 293 388 q 115 424 157 388 q 65 525 72 461 l 128 525 q 225 440 142 440 q 290 463 265 440 q 314 524 314 486 q 288 583 314 561 q 224 604 263 604 l 189 604 m 767 458 l 603 156 l 747 156 l 747 260 l 803 260 l 803 156 l 882 156 l 882 104 l 803 104 l 803 0 l 747 0 l 747 104 l 536 104 l 536 150 l 706 458 l 767 458 z "},"¿":{"ha":586,"x_min":38,"x_max":558,"o":"m 314 708 q 322 701 314 708 q 329 671 329 693 q 314 633 329 649 q 276 617 299 617 q 240 633 256 617 q 225 671 225 649 q 240 708 225 693 q 276 724 256 724 q 314 708 299 724 m 38 86 q 42 124 38 104 q 50 157 46 143 q 67 191 54 171 q 84 220 79 211 q 108 251 89 229 q 131 278 126 274 q 158 307 135 282 q 182 333 181 332 q 242 451 240 396 l 307 451 q 288 373 304 406 q 233 297 271 340 q 201 263 226 289 q 165 222 176 236 q 138 184 154 208 q 114 136 121 160 q 107 86 107 113 q 156 -36 107 8 q 285 -81 204 -81 q 424 -26 372 -81 q 486 121 476 28 l 558 121 q 474 -73 547 0 q 285 -146 400 -146 q 104 -83 171 -146 q 38 86 38 -19 z "},"À":{"ha":804,"x_min":32,"x_max":772,"o":"m 369 853 l 435 853 l 772 0 l 701 0 l 590 281 l 213 281 l 103 0 l 32 0 l 369 853 m 401 761 l 238 344 l 565 344 l 401 761 m 435 924 l 364 924 l 243 1086 l 319 1086 l 435 924 z "},"Á":{"ha":804,"x_min":32,"x_max":772,"o":"m 369 853 l 435 853 l 772 0 l 701 0 l 590 281 l 213 281 l 103 0 l 32 0 l 369 853 m 401 761 l 238 344 l 565 344 l 401 761 m 438 924 l 368 924 l 482 1086 l 560 1086 l 438 924 z "},"Â":{"ha":804,"x_min":32,"x_max":772,"o":"m 369 853 l 435 853 l 772 0 l 701 0 l 590 281 l 213 281 l 103 0 l 32 0 l 369 853 m 401 761 l 238 344 l 565 344 l 401 761 m 432 1092 l 560 926 l 494 926 l 401 1043 l 308 926 l 243 926 l 371 1092 l 432 1092 z "},"Ã":{"ha":804,"x_min":32,"x_max":772,"o":"m 369 853 l 435 853 l 772 0 l 701 0 l 590 281 l 213 281 l 103 0 l 32 0 l 369 853 m 401 761 l 238 344 l 565 344 l 401 761 m 528 1068 l 576 1068 q 551 963 576 1001 q 481 924 526 924 q 397 968 443 924 q 328 1013 351 1013 q 278 928 278 1013 l 228 928 q 253 1033 228 994 q 324 1072 278 1072 q 408 1028 363 1072 q 476 983 453 983 q 528 1068 525 983 z "},"Ä":{"ha":804,"x_min":32,"x_max":772,"o":"m 369 853 l 435 853 l 772 0 l 701 0 l 590 281 l 213 281 l 103 0 l 32 0 l 369 853 m 401 761 l 238 344 l 565 344 l 401 761 m 284 960 q 277 967 284 960 q 271 993 271 974 q 284 1026 271 1013 q 317 1039 297 1039 q 349 1026 336 1039 q 361 993 361 1013 q 348 960 361 974 q 317 947 335 947 q 284 960 297 947 m 458 960 q 451 967 458 960 q 444 993 444 974 q 457 1026 444 1013 q 489 1039 469 1039 q 522 1026 508 1039 q 535 993 535 1013 q 522 961 535 975 q 489 947 508 947 q 458 960 471 947 z "},"Å":{"ha":804,"x_min":32,"x_max":772,"o":"m 369 853 l 435 853 l 772 0 l 701 0 l 590 281 l 213 281 l 103 0 l 32 0 l 369 853 m 401 761 l 238 344 l 565 344 l 401 761 m 481 1091 q 498 1075 481 1091 q 514 1011 514 1058 q 481 932 514 964 q 401 900 449 900 q 322 932 354 900 q 289 1011 289 964 q 322 1091 289 1058 q 401 1124 354 1124 q 481 1091 449 1124 m 469 1011 q 449 1060 469 1040 q 401 1081 429 1081 q 353 1060 374 1081 q 333 1011 333 1040 q 353 963 333 983 q 401 943 374 943 q 449 963 429 943 q 469 1011 469 983 z "},"Æ":{"ha":1192,"x_min":32,"x_max":1114,"o":"m 563 853 l 1114 853 l 1114 788 l 672 788 l 672 472 l 1071 472 l 1071 407 l 672 407 l 672 65 l 1114 65 l 1114 0 l 603 0 l 603 281 l 282 281 l 107 0 l 32 0 l 563 853 m 603 790 l 322 344 l 603 344 l 603 790 z "},"Ç":{"ha":799,"x_min":54,"x_max":744,"o":"m 161 108 q 108 168 161 108 q 54 426 54 228 q 161 745 54 625 q 429 865 268 865 q 635 799 551 865 q 744 621 718 733 l 675 621 q 584 751 647 704 q 429 799 521 799 q 210 697 294 799 q 126 426 126 596 q 211 156 126 257 q 429 54 296 54 q 584 101 521 54 q 675 232 647 149 l 744 232 q 634 53 718 119 q 429 -12 550 -12 q 161 108 268 -12 m 385 -243 l 321 -243 l 403 -67 l 469 -67 l 385 -243 z "},"È":{"ha":715,"x_min":110,"x_max":639,"o":"m 418 924 l 347 924 l 226 1086 l 303 1086 l 418 924 m 110 853 l 639 853 l 639 788 l 179 788 l 179 472 l 596 472 l 596 407 l 179 407 l 179 65 l 639 65 l 639 0 l 110 0 l 110 853 z "},"É":{"ha":715,"x_min":110,"x_max":639,"o":"m 408 924 l 339 924 l 453 1086 l 531 1086 l 408 924 m 110 853 l 639 853 l 639 788 l 179 788 l 179 472 l 596 472 l 596 407 l 179 407 l 179 65 l 639 65 l 639 0 l 110 0 l 110 853 z "},"Ê":{"ha":715,"x_min":110,"x_max":639,"o":"m 110 853 l 639 853 l 639 788 l 179 788 l 179 472 l 596 472 l 596 407 l 179 407 l 179 65 l 639 65 l 639 0 l 110 0 l 110 853 m 411 1092 l 539 926 l 474 926 l 381 1043 l 288 926 l 222 926 l 350 1092 l 411 1092 z "},"Ë":{"ha":715,"x_min":110,"x_max":639,"o":"m 262 960 q 255 967 262 960 q 249 993 249 974 q 262 1026 249 1013 q 294 1039 275 1039 q 326 1026 314 1039 q 339 993 339 1013 q 326 960 339 974 q 294 947 313 947 q 262 960 275 947 m 435 960 q 429 967 435 960 q 422 993 422 974 q 435 1026 422 1013 q 467 1039 447 1039 q 499 1026 486 1039 q 513 993 513 1013 q 499 961 513 975 q 467 947 486 947 q 435 960 449 947 m 110 853 l 639 853 l 639 788 l 179 788 l 179 472 l 596 472 l 596 407 l 179 407 l 179 65 l 639 65 l 639 0 l 110 0 l 110 853 z "},"Ì":{"ha":290,"x_min":-10,"x_max":182,"o":"m 181 853 l 181 0 l 110 0 l 110 853 l 181 853 m 182 924 l 111 924 l -10 1086 l 67 1086 l 182 924 z "},"Í":{"ha":290,"x_min":103,"x_max":294,"o":"m 181 853 l 181 0 l 110 0 l 110 853 l 181 853 m 172 924 l 103 924 l 217 1086 l 294 1086 l 172 924 z "},"Î":{"ha":290,"x_min":-14,"x_max":303,"o":"m 181 853 l 181 0 l 110 0 l 110 853 l 181 853 m 175 1092 l 303 926 l 238 926 l 144 1043 l 51 926 l -14 926 l 114 1092 l 175 1092 z "},"Ï":{"ha":290,"x_min":13,"x_max":276,"o":"m 181 853 l 181 0 l 110 0 l 110 853 l 181 853 m 26 960 q 19 967 26 960 q 13 993 13 974 q 26 1026 13 1013 q 58 1039 39 1039 q 90 1026 78 1039 q 103 993 103 1013 q 90 960 103 974 q 58 947 76 947 q 26 960 39 947 m 199 960 q 193 967 199 960 q 186 993 186 974 q 199 1026 186 1013 q 231 1039 211 1039 q 263 1026 250 1039 q 276 993 276 1013 q 263 961 276 975 q 231 947 250 947 q 199 960 213 947 z "},"Ð":{"ha":856,"x_min":47,"x_max":801,"o":"m 47 410 l 47 472 l 128 472 l 128 853 l 388 853 q 688 737 574 853 q 801 426 801 621 q 688 116 801 232 q 388 0 574 0 l 128 0 l 128 410 l 47 410 m 199 65 l 388 65 q 637 164 544 65 q 729 426 729 263 q 637 689 729 590 q 388 788 544 788 l 199 788 l 199 472 l 379 472 l 379 410 l 199 410 l 199 65 z "},"Ñ":{"ha":856,"x_min":110,"x_max":746,"o":"m 553 1068 l 601 1068 q 576 963 601 1001 q 506 924 551 924 q 422 968 468 924 q 353 1013 376 1013 q 303 928 303 1013 l 253 928 q 278 1033 253 994 q 349 1072 303 1072 q 433 1028 388 1072 q 501 983 478 983 q 553 1068 550 983 m 746 853 l 746 0 l 699 0 l 178 740 l 178 0 l 110 0 l 110 853 l 178 853 l 678 142 l 678 853 l 746 853 z "},"Ò":{"ha":861,"x_min":54,"x_max":808,"o":"m 468 924 l 397 924 l 276 1086 l 353 1086 l 468 924 m 702 743 q 755 682 702 743 q 808 426 808 621 q 702 110 808 232 q 431 -12 596 -12 q 160 110 267 -12 q 54 426 54 232 q 160 743 54 621 q 431 865 267 865 q 702 743 596 865 m 651 158 q 694 209 651 158 q 736 426 736 261 q 651 695 736 592 q 431 799 567 799 q 211 695 296 799 q 126 426 126 592 q 211 158 126 261 q 431 54 296 54 q 651 158 567 54 z "},"Ó":{"ha":861,"x_min":54,"x_max":808,"o":"m 458 924 l 389 924 l 503 1086 l 581 1086 l 458 924 m 702 743 q 755 682 702 743 q 808 426 808 621 q 702 110 808 232 q 431 -12 596 -12 q 160 110 267 -12 q 54 426 54 232 q 160 743 54 621 q 431 865 267 865 q 702 743 596 865 m 651 158 q 694 209 651 158 q 736 426 736 261 q 651 695 736 592 q 431 799 567 799 q 211 695 296 799 q 126 426 126 592 q 211 158 126 261 q 431 54 296 54 q 651 158 567 54 z "},"Ô":{"ha":861,"x_min":54,"x_max":808,"o":"m 702 743 q 755 682 702 743 q 808 426 808 621 q 702 110 808 232 q 431 -12 596 -12 q 160 110 267 -12 q 54 426 54 232 q 160 743 54 621 q 431 865 267 865 q 702 743 596 865 m 651 158 q 694 209 651 158 q 736 426 736 261 q 651 695 736 592 q 431 799 567 799 q 211 695 296 799 q 126 426 126 592 q 211 158 126 261 q 431 54 296 54 q 651 158 567 54 m 461 1092 l 589 926 l 524 926 l 431 1043 l 338 926 l 272 926 l 400 1092 l 461 1092 z "},"Õ":{"ha":861,"x_min":54,"x_max":808,"o":"m 557 1068 l 606 1068 q 581 963 606 1001 q 510 924 556 924 q 426 968 472 924 q 357 1013 381 1013 q 307 928 307 1013 l 257 928 q 282 1033 257 994 q 353 1072 307 1072 q 437 1028 392 1072 q 506 983 482 983 q 557 1068 554 983 m 702 743 q 755 682 702 743 q 808 426 808 621 q 702 110 808 232 q 431 -12 596 -12 q 160 110 267 -12 q 54 426 54 232 q 160 743 54 621 q 431 865 267 865 q 702 743 596 865 m 651 158 q 694 209 651 158 q 736 426 736 261 q 651 695 736 592 q 431 799 567 799 q 211 695 296 799 q 126 426 126 592 q 211 158 126 261 q 431 54 296 54 q 651 158 567 54 z "},"Ö":{"ha":861,"x_min":54,"x_max":808,"o":"m 312 960 q 305 967 312 960 q 299 993 299 974 q 312 1026 299 1013 q 344 1039 325 1039 q 376 1026 364 1039 q 389 993 389 1013 q 376 960 389 974 q 344 947 363 947 q 312 960 325 947 m 485 960 q 479 967 485 960 q 472 993 472 974 q 485 1026 472 1013 q 517 1039 497 1039 q 549 1026 536 1039 q 563 993 563 1013 q 549 961 563 975 q 517 947 536 947 q 485 960 499 947 m 702 743 q 755 682 702 743 q 808 426 808 621 q 702 110 808 232 q 431 -12 596 -12 q 160 110 267 -12 q 54 426 54 232 q 160 743 54 621 q 431 865 267 865 q 702 743 596 865 m 651 158 q 694 209 651 158 q 736 426 736 261 q 651 695 736 592 q 431 799 567 799 q 211 695 296 799 q 126 426 126 592 q 211 158 126 261 q 431 54 296 54 q 651 158 567 54 z "},"×":{"ha":614,"x_min":99,"x_max":515,"o":"m 268 406 l 99 575 l 140 615 l 307 446 l 474 615 l 515 575 l 349 406 l 515 236 l 474 196 l 307 364 l 140 196 l 99 236 l 268 406 z "},"Ø":{"ha":875,"x_min":61,"x_max":815,"o":"m 69 10 l 158 119 q 61 426 61 242 q 167 743 61 621 q 438 865 274 865 q 683 769 583 865 l 756 858 l 800 825 l 721 728 q 815 426 815 607 q 709 110 815 232 q 438 -12 603 -12 q 197 79 297 -12 l 114 -24 l 69 10 m 133 426 q 203 175 133 275 l 640 717 q 438 799 558 799 q 218 695 303 799 q 133 426 133 592 m 743 426 q 676 672 743 574 l 239 132 q 438 54 319 54 q 658 158 574 54 q 743 426 743 261 z "},"Ù":{"ha":840,"x_min":93,"x_max":747,"o":"m 457 924 l 386 924 l 265 1086 l 342 1086 l 457 924 m 656 77 q 610 32 656 77 q 419 -12 564 -12 q 184 77 275 -12 q 93 336 93 167 l 93 853 l 164 853 l 164 346 q 234 127 164 201 q 419 53 304 53 q 606 127 535 53 q 676 346 676 201 l 676 853 l 747 853 l 747 336 q 656 77 747 167 z "},"Ú":{"ha":840,"x_min":93,"x_max":747,"o":"m 447 924 l 378 924 l 492 1086 l 569 1086 l 447 924 m 656 77 q 610 32 656 77 q 419 -12 564 -12 q 184 77 275 -12 q 93 336 93 167 l 93 853 l 164 853 l 164 346 q 234 127 164 201 q 419 53 304 53 q 606 127 535 53 q 676 346 676 201 l 676 853 l 747 853 l 747 336 q 656 77 747 167 z "},"Û":{"ha":840,"x_min":93,"x_max":747,"o":"m 656 77 q 610 32 656 77 q 419 -12 564 -12 q 184 77 275 -12 q 93 336 93 167 l 93 853 l 164 853 l 164 346 q 234 127 164 201 q 419 53 304 53 q 606 127 535 53 q 676 346 676 201 l 676 853 l 747 853 l 747 336 q 656 77 747 167 m 451 1092 l 579 926 l 514 926 l 421 1043 l 328 926 l 263 926 l 390 1092 l 451 1092 z "},"Ü":{"ha":840,"x_min":93,"x_max":747,"o":"m 302 960 q 295 967 302 960 q 289 993 289 974 q 302 1026 289 1013 q 335 1039 315 1039 q 367 1026 354 1039 q 379 993 379 1013 q 366 960 379 974 q 335 947 353 947 q 302 960 315 947 m 476 960 q 469 967 476 960 q 463 993 463 974 q 475 1026 463 1013 q 507 1039 488 1039 q 540 1026 526 1039 q 553 993 553 1013 q 539 961 553 975 q 507 947 525 947 q 476 960 489 947 m 656 77 q 610 32 656 77 q 419 -12 564 -12 q 184 77 275 -12 q 93 336 93 167 l 93 853 l 164 853 l 164 346 q 234 127 164 201 q 419 53 304 53 q 606 127 535 53 q 676 346 676 201 l 676 853 l 747 853 l 747 336 q 656 77 747 167 z "},"Ý":{"ha":743,"x_min":26,"x_max":718,"o":"m 374 429 l 642 853 l 718 853 l 407 364 l 407 0 l 336 0 l 336 364 l 26 853 l 104 853 l 374 429 m 399 924 l 329 924 l 443 1086 l 521 1086 l 399 924 z "},"Þ":{"ha":735,"x_min":110,"x_max":688,"o":"m 418 194 l 181 194 l 181 0 l 110 0 l 110 853 l 181 853 l 181 679 l 418 679 q 616 617 544 679 q 688 438 688 554 q 616 257 688 319 q 418 194 544 194 m 565 306 q 591 330 565 306 q 617 438 617 353 q 565 569 617 522 q 415 615 514 615 l 181 615 l 181 260 l 415 260 q 565 306 514 260 z "},"ß":{"ha":696,"x_min":99,"x_max":640,"o":"m 431 514 q 578 435 517 501 q 640 261 640 368 q 568 63 640 136 q 381 -10 496 -10 q 250 22 306 -10 l 250 89 q 378 53 303 53 q 520 108 468 53 q 572 264 572 164 q 506 422 572 365 q 333 479 440 479 l 274 479 l 274 540 l 333 540 q 453 587 406 540 q 500 703 500 633 q 458 811 500 768 q 343 854 415 854 q 213 798 258 854 q 167 649 167 742 l 167 0 l 99 0 l 99 649 q 163 841 99 767 q 343 915 226 915 q 506 855 446 915 q 567 706 567 794 q 528 584 567 633 q 431 514 489 535 z "},"à":{"ha":610,"x_min":53,"x_max":518,"o":"m 518 0 l 451 0 l 451 58 q 382 11 429 32 q 281 -10 335 -10 q 118 42 183 -10 q 53 181 53 94 q 119 317 53 264 q 283 369 186 369 q 381 349 333 369 q 451 304 428 329 l 451 414 q 410 526 451 483 q 297 568 369 568 q 147 463 182 568 l 79 463 q 156 585 97 540 q 297 629 215 629 q 459 572 400 629 q 518 417 518 514 l 518 0 m 451 140 l 451 219 q 390 285 436 260 q 288 311 343 311 q 167 277 217 311 q 118 181 118 243 q 167 83 118 118 q 288 49 217 49 q 390 74 343 49 q 451 140 436 100 m 351 722 l 283 722 l 163 903 l 236 903 l 351 722 z "},"á":{"ha":610,"x_min":53,"x_max":518,"o":"m 518 0 l 451 0 l 451 58 q 382 11 429 32 q 281 -10 335 -10 q 118 42 183 -10 q 53 181 53 94 q 119 317 53 264 q 283 369 186 369 q 381 349 333 369 q 451 304 428 329 l 451 414 q 410 526 451 483 q 297 568 369 568 q 147 463 182 568 l 79 463 q 156 585 97 540 q 297 629 215 629 q 459 572 400 629 q 518 417 518 514 l 518 0 m 451 140 l 451 219 q 390 285 436 260 q 288 311 343 311 q 167 277 217 311 q 118 181 118 243 q 167 83 118 118 q 288 49 217 49 q 390 74 343 49 q 451 140 436 100 m 338 722 l 269 722 l 385 903 l 458 903 l 338 722 z "},"â":{"ha":610,"x_min":53,"x_max":518,"o":"m 340 894 l 468 713 l 404 713 l 310 847 l 215 713 l 151 713 l 279 894 l 340 894 m 518 0 l 451 0 l 451 58 q 382 11 429 32 q 281 -10 335 -10 q 118 42 183 -10 q 53 181 53 94 q 119 317 53 264 q 283 369 186 369 q 381 349 333 369 q 451 304 428 329 l 451 414 q 410 526 451 483 q 297 568 369 568 q 147 463 182 568 l 79 463 q 156 585 97 540 q 297 629 215 629 q 459 572 400 629 q 518 417 518 514 l 518 0 m 451 140 l 451 219 q 390 285 436 260 q 288 311 343 311 q 167 277 217 311 q 118 181 118 243 q 167 83 118 118 q 288 49 217 49 q 390 74 343 49 q 451 140 436 100 z "},"ã":{"ha":610,"x_min":53,"x_max":518,"o":"m 518 0 l 451 0 l 451 58 q 382 11 429 32 q 281 -10 335 -10 q 118 42 183 -10 q 53 181 53 94 q 119 317 53 264 q 283 369 186 369 q 381 349 333 369 q 451 304 428 329 l 451 414 q 410 526 451 483 q 297 568 369 568 q 147 463 182 568 l 79 463 q 156 585 97 540 q 297 629 215 629 q 459 572 400 629 q 518 417 518 514 l 518 0 m 451 140 l 451 219 q 390 285 436 260 q 288 311 343 311 q 167 277 217 311 q 118 181 118 243 q 167 83 118 118 q 288 49 217 49 q 390 74 343 49 q 451 140 436 100 m 433 868 l 482 868 q 458 762 482 801 q 388 722 433 722 q 305 767 350 722 q 238 813 260 813 q 188 726 188 813 l 139 726 q 163 833 139 793 q 233 872 188 872 q 317 827 272 872 q 383 782 361 782 q 420 806 407 782 q 433 868 433 829 z "},"ä":{"ha":610,"x_min":53,"x_max":518,"o":"m 191 760 q 184 767 191 760 q 178 793 178 774 q 191 825 178 813 q 224 838 204 838 q 255 824 242 838 q 268 793 268 811 q 256 760 268 774 q 224 747 243 747 q 191 760 204 747 m 351 793 q 365 824 351 811 q 396 838 378 838 q 428 824 415 838 q 442 793 442 811 q 428 760 442 774 q 396 747 415 747 q 364 760 376 747 q 351 793 351 774 m 518 0 l 451 0 l 451 58 q 382 11 429 32 q 281 -10 335 -10 q 118 42 183 -10 q 53 181 53 94 q 119 317 53 264 q 283 369 186 369 q 381 349 333 369 q 451 304 428 329 l 451 414 q 410 526 451 483 q 297 568 369 568 q 147 463 182 568 l 79 463 q 156 585 97 540 q 297 629 215 629 q 459 572 400 629 q 518 417 518 514 l 518 0 m 451 140 l 451 219 q 390 285 436 260 q 288 311 343 311 q 167 277 217 311 q 118 181 118 243 q 167 83 118 118 q 288 49 217 49 q 390 74 343 49 q 451 140 436 100 z "},"å":{"ha":610,"x_min":53,"x_max":518,"o":"m 518 0 l 451 0 l 451 58 q 382 11 429 32 q 281 -10 335 -10 q 118 42 183 -10 q 53 181 53 94 q 119 317 53 264 q 283 369 186 369 q 381 349 333 369 q 451 304 428 329 l 451 414 q 410 526 451 483 q 297 568 369 568 q 147 463 182 568 l 79 463 q 156 585 97 540 q 297 629 215 629 q 459 572 400 629 q 518 417 518 514 l 518 0 m 451 140 l 451 219 q 390 285 436 260 q 288 311 343 311 q 167 277 217 311 q 118 181 118 243 q 167 83 118 118 q 288 49 217 49 q 390 74 343 49 q 451 140 436 100 m 387 885 q 403 869 387 885 q 419 806 419 853 q 387 726 419 758 q 307 693 354 693 q 227 726 260 693 q 194 806 194 758 q 227 885 194 853 q 307 918 260 918 q 387 885 354 918 m 355 757 q 365 767 355 757 q 375 806 375 776 q 355 854 375 835 q 307 874 335 874 q 259 854 279 874 q 239 806 239 835 q 259 757 239 776 q 307 738 279 738 q 355 757 335 738 z "},"æ":{"ha":1015,"x_min":47,"x_max":964,"o":"m 261 49 q 379 89 331 49 q 447 192 428 129 l 447 301 l 282 301 q 163 269 211 301 q 114 175 114 236 q 156 81 114 114 q 261 49 197 49 m 886 179 l 953 179 q 872 40 935 92 q 714 -12 810 -12 q 483 132 558 -12 q 258 -10 406 -10 q 107 40 167 -10 q 47 172 47 90 q 114 308 47 257 q 279 358 181 358 l 447 358 l 447 414 q 406 526 447 483 q 293 568 365 568 q 142 463 176 568 l 75 463 q 152 585 93 540 q 293 629 211 629 q 424 592 371 629 q 494 492 476 556 q 713 629 571 629 q 899 547 833 629 q 964 328 964 464 l 964 303 l 510 303 q 567 117 511 185 q 714 49 624 49 q 826 83 781 49 q 886 179 871 118 m 713 568 q 575 511 629 568 q 511 357 521 454 l 893 357 q 845 507 890 446 q 713 568 800 568 z "},"ç":{"ha":614,"x_min":54,"x_max":563,"o":"m 129 76 q 92 121 129 76 q 54 308 54 165 q 129 540 54 451 q 326 629 204 629 q 484 577 422 629 q 563 438 546 525 l 492 438 q 435 533 478 499 q 326 567 392 567 q 180 496 236 567 q 124 308 124 425 q 180 121 124 192 q 326 50 236 50 q 435 84 392 50 q 492 179 478 118 l 563 179 q 484 40 546 92 q 326 -12 422 -12 q 129 76 204 -12 m 282 -243 l 218 -243 l 300 -67 l 367 -67 l 282 -243 z "},"è":{"ha":629,"x_min":54,"x_max":576,"o":"m 500 179 l 567 179 q 485 40 549 92 q 328 -12 422 -12 q 130 76 206 -12 q 54 308 54 165 q 128 539 54 449 q 326 629 203 629 q 511 547 446 629 q 576 328 576 464 l 576 303 l 122 303 q 181 117 124 186 q 328 49 238 49 q 440 83 393 49 q 500 179 486 118 m 326 568 q 190 511 243 568 q 125 357 136 454 l 507 357 q 458 507 504 446 q 326 568 413 568 m 367 722 l 299 722 l 178 903 l 251 903 l 367 722 z "},"é":{"ha":629,"x_min":54,"x_max":576,"o":"m 357 722 l 289 722 l 404 903 l 478 903 l 357 722 m 500 179 l 567 179 q 485 40 549 92 q 328 -12 422 -12 q 130 76 206 -12 q 54 308 54 165 q 128 539 54 449 q 326 629 203 629 q 511 547 446 629 q 576 328 576 464 l 576 303 l 122 303 q 181 117 124 186 q 328 49 238 49 q 440 83 393 49 q 500 179 486 118 m 326 568 q 190 511 243 568 q 125 357 136 454 l 507 357 q 458 507 504 446 q 326 568 413 568 z "},"ê":{"ha":629,"x_min":54,"x_max":576,"o":"m 360 894 l 488 713 l 424 713 l 329 847 l 235 713 l 171 713 l 299 894 l 360 894 m 500 179 l 567 179 q 485 40 549 92 q 328 -12 422 -12 q 130 76 206 -12 q 54 308 54 165 q 128 539 54 449 q 326 629 203 629 q 511 547 446 629 q 576 328 576 464 l 576 303 l 122 303 q 181 117 124 186 q 328 49 238 49 q 440 83 393 49 q 500 179 486 118 m 326 568 q 190 511 243 568 q 125 357 136 454 l 507 357 q 458 507 504 446 q 326 568 413 568 z "},"ë":{"ha":629,"x_min":54,"x_max":576,"o":"m 212 760 q 205 767 212 760 q 199 793 199 774 q 212 825 199 813 q 244 838 225 838 q 276 824 264 838 q 289 793 289 811 q 276 760 289 774 q 244 747 264 747 q 212 760 225 747 m 372 793 q 385 824 372 811 q 417 838 397 838 q 449 824 436 838 q 463 793 463 811 q 449 760 463 774 q 417 747 436 747 q 385 760 397 747 q 372 793 372 774 m 500 179 l 567 179 q 485 40 549 92 q 328 -12 422 -12 q 130 76 206 -12 q 54 308 54 165 q 128 539 54 449 q 326 629 203 629 q 511 547 446 629 q 576 328 576 464 l 576 303 l 122 303 q 181 117 124 186 q 328 49 238 49 q 440 83 393 49 q 500 179 486 118 m 326 568 q 190 511 243 568 q 125 357 136 454 l 507 357 q 458 507 504 446 q 326 568 413 568 z "},"ì":{"ha":267,"x_min":-18,"x_max":171,"o":"m 168 617 l 168 0 l 99 0 l 99 617 l 168 617 m 171 722 l 103 722 l -18 903 l 56 903 l 171 722 z "},"í":{"ha":267,"x_min":93,"x_max":282,"o":"m 161 722 l 93 722 l 208 903 l 282 903 l 161 722 m 168 617 l 168 0 l 99 0 l 99 617 l 168 617 z "},"î":{"ha":267,"x_min":3,"x_max":264,"o":"m 164 894 l 264 713 l 203 713 l 133 843 l 64 713 l 3 713 l 103 894 l 164 894 m 168 617 l 168 0 l 99 0 l 99 617 l 168 617 z "},"ï":{"ha":267,"x_min":14,"x_max":253,"o":"m 14 793 q 27 824 14 811 q 60 838 40 838 q 92 824 79 838 q 106 793 106 811 q 92 760 106 774 q 60 747 79 747 q 27 760 40 747 q 14 793 14 774 m 163 793 q 176 824 163 811 q 207 838 189 838 q 240 825 226 838 q 253 793 253 813 q 240 760 253 774 q 207 747 226 747 q 175 760 188 747 q 163 793 163 774 m 168 617 l 168 0 l 99 0 l 99 617 l 168 617 z "},"ð":{"ha":654,"x_min":54,"x_max":600,"o":"m 192 696 l 174 743 l 310 788 q 174 897 246 847 l 174 903 l 261 903 q 375 808 324 860 l 488 846 l 504 800 l 414 769 q 600 311 600 563 q 524 77 600 167 q 326 -12 449 -12 q 129 76 204 -12 q 54 307 54 165 q 128 538 54 450 q 322 626 203 626 q 489 546 422 626 l 492 546 q 350 749 447 647 l 192 696 m 475 119 q 503 155 475 119 q 531 307 531 190 q 475 494 531 424 q 326 565 419 565 q 179 494 235 565 q 124 307 124 424 q 179 120 124 192 q 326 49 235 49 q 475 119 419 49 z "},"ñ":{"ha":671,"x_min":99,"x_max":579,"o":"m 99 0 l 99 617 l 168 617 l 168 518 q 251 597 199 565 q 365 629 303 629 q 524 569 468 629 q 579 408 579 508 l 579 0 l 511 0 l 511 399 q 472 519 511 474 q 353 565 432 565 q 242 528 292 565 q 168 432 192 490 l 168 0 l 99 0 m 463 868 l 511 868 q 487 762 511 801 q 417 722 463 722 q 334 767 379 722 q 267 813 289 813 q 217 726 217 813 l 168 726 q 192 833 168 793 q 263 872 217 872 q 320 850 293 872 q 370 805 347 828 q 413 782 393 782 q 449 806 436 782 q 463 868 463 829 z "},"ò":{"ha":654,"x_min":54,"x_max":600,"o":"m 524 540 q 562 496 524 540 q 600 308 600 451 q 524 76 600 165 q 326 -12 449 -12 q 129 76 204 -12 q 54 308 54 165 q 129 540 54 451 q 326 629 204 629 q 524 540 449 629 m 475 120 q 503 156 475 120 q 531 308 531 192 q 475 497 531 425 q 326 568 419 568 q 179 497 235 568 q 124 308 124 425 q 179 120 124 192 q 326 49 235 49 q 475 120 419 49 m 364 722 l 296 722 l 175 903 l 249 903 l 364 722 z "},"ó":{"ha":654,"x_min":54,"x_max":600,"o":"m 354 722 l 286 722 l 401 903 l 475 903 l 354 722 m 524 540 q 562 496 524 540 q 600 308 600 451 q 524 76 600 165 q 326 -12 449 -12 q 129 76 204 -12 q 54 308 54 165 q 129 540 54 451 q 326 629 204 629 q 524 540 449 629 m 475 120 q 503 156 475 120 q 531 308 531 192 q 475 497 531 425 q 326 568 419 568 q 179 497 235 568 q 124 308 124 425 q 179 120 124 192 q 326 49 235 49 q 475 120 419 49 z "},"ô":{"ha":654,"x_min":54,"x_max":600,"o":"m 357 894 l 485 713 l 421 713 l 326 847 l 232 713 l 168 713 l 296 894 l 357 894 m 524 540 q 562 496 524 540 q 600 308 600 451 q 524 76 600 165 q 326 -12 449 -12 q 129 76 204 -12 q 54 308 54 165 q 129 540 54 451 q 326 629 204 629 q 524 540 449 629 m 475 120 q 503 156 475 120 q 531 308 531 192 q 475 497 531 425 q 326 568 419 568 q 179 497 235 568 q 124 308 124 425 q 179 120 124 192 q 326 49 235 49 q 475 120 419 49 z "},"õ":{"ha":654,"x_min":54,"x_max":600,"o":"m 524 540 q 562 496 524 540 q 600 308 600 451 q 524 76 600 165 q 326 -12 449 -12 q 129 76 204 -12 q 54 308 54 165 q 129 540 54 451 q 326 629 204 629 q 524 540 449 629 m 475 120 q 503 156 475 120 q 531 308 531 192 q 475 497 531 425 q 326 568 419 568 q 179 497 235 568 q 124 308 124 425 q 179 120 124 192 q 326 49 235 49 q 475 120 419 49 m 450 868 l 499 868 q 474 762 499 801 q 404 722 450 722 q 322 767 367 722 q 254 813 276 813 q 204 726 204 813 l 156 726 q 180 833 156 793 q 250 872 204 872 q 333 827 289 872 q 400 782 378 782 q 437 806 424 782 q 450 868 450 829 z "},"ö":{"ha":654,"x_min":54,"x_max":600,"o":"m 209 760 q 202 767 209 760 q 196 793 196 774 q 209 825 196 813 q 242 838 222 838 q 274 824 261 838 q 286 793 286 811 q 274 760 286 774 q 242 747 261 747 q 209 760 222 747 m 369 793 q 382 824 369 811 q 414 838 394 838 q 447 824 433 838 q 460 793 460 811 q 447 760 460 774 q 414 747 433 747 q 382 760 394 747 q 369 793 369 774 m 524 540 q 562 496 524 540 q 600 308 600 451 q 524 76 600 165 q 326 -12 449 -12 q 129 76 204 -12 q 54 308 54 165 q 129 540 54 451 q 326 629 204 629 q 524 540 449 629 m 475 120 q 503 156 475 120 q 531 308 531 192 q 475 497 531 425 q 326 568 419 568 q 179 497 235 568 q 124 308 124 425 q 179 120 124 192 q 326 49 235 49 q 475 120 419 49 z "},"÷":{"ha":714,"x_min":99,"x_max":615,"o":"m 99 379 l 99 439 l 615 439 l 615 379 l 99 379 m 306 621 q 321 658 306 643 q 357 674 336 674 q 392 658 376 674 q 407 621 407 643 q 392 585 407 600 q 357 571 376 571 q 321 585 336 571 q 306 621 306 600 m 306 197 q 321 233 306 218 q 357 249 336 249 q 392 233 376 249 q 407 197 407 218 q 392 160 407 175 q 357 146 378 146 q 321 160 336 146 q 306 197 306 175 z "},"ø":{"ha":668,"x_min":61,"x_max":607,"o":"m 61 -1 l 129 85 q 61 308 61 169 q 136 540 61 451 q 333 629 211 629 q 504 567 433 629 l 563 642 l 603 613 l 539 531 q 607 308 607 443 q 531 76 607 165 q 333 -12 456 -12 q 163 49 235 -12 l 101 -31 l 61 -1 m 129 308 q 171 139 129 203 l 465 517 q 333 568 411 568 q 185 497 242 568 q 129 308 129 425 m 539 308 q 497 476 539 408 l 203 100 q 333 49 254 49 q 483 120 426 49 q 539 308 539 192 z "},"ù":{"ha":668,"x_min":92,"x_max":569,"o":"m 569 617 l 569 0 l 501 0 l 501 99 q 419 19 471 51 q 306 -12 368 -12 q 147 48 203 -12 q 92 208 92 108 l 92 617 l 160 617 l 160 218 q 199 97 160 143 q 318 51 239 51 q 428 89 379 51 q 501 185 478 126 l 501 617 l 569 617 m 369 722 l 301 722 l 181 903 l 254 903 l 369 722 z "},"ú":{"ha":668,"x_min":92,"x_max":569,"o":"m 360 722 l 292 722 l 407 903 l 481 903 l 360 722 m 569 617 l 569 0 l 501 0 l 501 99 q 419 19 471 51 q 306 -12 368 -12 q 147 48 203 -12 q 92 208 92 108 l 92 617 l 160 617 l 160 218 q 199 97 160 143 q 318 51 239 51 q 428 89 379 51 q 501 185 478 126 l 501 617 l 569 617 z "},"û":{"ha":668,"x_min":92,"x_max":569,"o":"m 363 894 l 490 713 l 426 713 l 332 847 l 238 713 l 174 713 l 301 894 l 363 894 m 569 617 l 569 0 l 501 0 l 501 99 q 419 19 471 51 q 306 -12 368 -12 q 147 48 203 -12 q 92 208 92 108 l 92 617 l 160 617 l 160 218 q 199 97 160 143 q 318 51 239 51 q 428 89 379 51 q 501 185 478 126 l 501 617 l 569 617 z "},"ü":{"ha":668,"x_min":92,"x_max":569,"o":"m 213 760 q 207 767 213 760 q 200 793 200 774 q 213 825 200 813 q 246 838 226 838 q 277 824 264 838 q 290 793 290 811 q 278 760 290 774 q 246 747 265 747 q 213 760 226 747 m 374 793 q 387 824 374 811 q 418 838 400 838 q 451 824 438 838 q 464 793 464 811 q 451 760 464 774 q 418 747 438 747 q 386 760 399 747 q 374 793 374 774 m 569 617 l 569 0 l 501 0 l 501 99 q 419 19 471 51 q 306 -12 368 -12 q 147 48 203 -12 q 92 208 92 108 l 92 617 l 160 617 l 160 218 q 199 97 160 143 q 318 51 239 51 q 428 89 379 51 q 501 185 478 126 l 501 617 l 569 617 z "},"ý":{"ha":600,"x_min":25,"x_max":575,"o":"m 236 -236 l 167 -236 l 267 8 l 25 617 l 99 617 l 301 94 l 504 617 l 575 617 l 236 -236 m 328 722 l 260 722 l 375 903 l 449 903 l 328 722 z "},"þ":{"ha":683,"x_min":99,"x_max":629,"o":"m 168 92 l 168 -236 l 99 -236 l 99 903 l 168 903 l 168 525 q 248 599 196 568 q 360 629 300 629 q 559 537 489 629 q 629 308 629 444 q 559 80 629 172 q 360 -12 489 -12 q 248 18 300 -12 q 168 92 196 49 m 168 443 l 168 174 q 353 51 232 51 q 504 123 449 51 q 560 308 560 194 q 504 494 560 422 q 353 565 449 565 q 168 443 232 565 z "},"ÿ":{"ha":600,"x_min":25,"x_max":575,"o":"m 236 -236 l 167 -236 l 267 8 l 25 617 l 99 617 l 301 94 l 504 617 l 575 617 l 236 -236 m 183 760 q 176 767 183 760 q 169 793 169 774 q 183 825 169 813 q 215 838 196 838 q 247 824 233 838 q 260 793 260 811 q 247 760 260 774 q 215 747 235 747 q 183 760 196 747 m 343 793 q 356 824 343 811 q 388 838 369 838 q 420 824 407 838 q 433 793 433 811 q 420 760 433 774 q 388 747 407 747 q 356 760 368 747 q 343 793 343 774 z "},"Ā":{"ha":804,"x_min":32,"x_max":772,"o":"m 369 853 l 435 853 l 772 0 l 701 0 l 590 281 l 213 281 l 103 0 l 32 0 l 369 853 m 401 761 l 238 344 l 565 344 l 401 761 m 263 931 l 263 989 l 542 989 l 542 931 l 263 931 z "},"ā":{"ha":610,"x_min":53,"x_max":518,"o":"m 518 0 l 451 0 l 451 58 q 382 11 429 32 q 281 -10 335 -10 q 118 42 183 -10 q 53 181 53 94 q 119 317 53 264 q 283 369 186 369 q 381 349 333 369 q 451 304 428 329 l 451 414 q 410 526 451 483 q 297 568 369 568 q 147 463 182 568 l 79 463 q 156 585 97 540 q 297 629 215 629 q 459 572 400 629 q 518 417 518 514 l 518 0 m 451 140 l 451 219 q 390 285 436 260 q 288 311 343 311 q 167 277 217 311 q 118 181 118 243 q 167 83 118 118 q 288 49 217 49 q 390 74 343 49 q 451 140 436 100 m 171 746 l 171 803 l 450 803 l 450 746 l 171 746 z "},"Ă":{"ha":804,"x_min":32,"x_max":772,"o":"m 369 853 l 435 853 l 772 0 l 701 0 l 590 281 l 213 281 l 103 0 l 32 0 l 369 853 m 401 761 l 238 344 l 565 344 l 401 761 m 506 965 q 486 943 506 965 q 403 922 467 922 q 299 965 339 922 q 260 1085 260 1007 l 315 1085 q 340 1004 315 1033 q 403 975 364 975 q 466 1004 442 975 q 490 1085 490 1033 l 544 1085 q 506 965 544 1007 z "},"ă":{"ha":610,"x_min":53,"x_max":518,"o":"m 518 0 l 451 0 l 451 58 q 382 11 429 32 q 281 -10 335 -10 q 118 42 183 -10 q 53 181 53 94 q 119 317 53 264 q 283 369 186 369 q 381 349 333 369 q 451 304 428 329 l 451 414 q 410 526 451 483 q 297 568 369 568 q 147 463 182 568 l 79 463 q 156 585 97 540 q 297 629 215 629 q 459 572 400 629 q 518 417 518 514 l 518 0 m 451 140 l 451 219 q 390 285 436 260 q 288 311 343 311 q 167 277 217 311 q 118 181 118 243 q 167 83 118 118 q 288 49 217 49 q 390 74 343 49 q 451 140 436 100 m 410 747 q 390 725 410 747 q 307 703 371 703 q 204 747 243 703 q 165 869 165 790 l 221 869 q 244 785 221 815 q 307 754 268 754 q 369 785 346 754 q 393 869 393 815 l 449 869 q 410 747 449 790 z "},"Ą":{"ha":804,"x_min":32,"x_max":789,"o":"m 369 853 l 435 853 l 772 0 q 716 -105 729 -75 q 703 -162 703 -135 q 738 -201 703 -201 q 789 -182 761 -201 l 789 -232 q 726 -253 758 -253 q 669 -231 690 -253 q 647 -169 647 -210 q 662 -105 647 -139 q 718 0 676 -71 l 701 0 l 590 281 l 213 281 l 103 0 l 32 0 l 369 853 m 401 761 l 238 344 l 565 344 l 401 761 z "},"ą":{"ha":610,"x_min":53,"x_max":535,"o":"m 451 140 l 451 219 q 390 285 436 260 q 288 311 343 311 q 167 277 217 311 q 118 181 118 243 q 167 83 118 118 q 288 49 217 49 q 390 74 343 49 q 451 140 436 100 m 463 0 l 451 0 l 451 58 q 381 11 428 32 q 281 -10 333 -10 q 118 42 183 -10 q 53 181 53 94 q 119 317 53 264 q 283 369 186 369 q 381 349 333 369 q 451 304 428 329 l 451 414 q 410 526 451 483 q 297 568 369 568 q 146 463 181 568 l 79 463 q 156 585 97 540 q 297 629 215 629 q 459 572 400 629 q 518 417 518 514 l 518 0 q 462 -105 475 -74 q 449 -162 449 -136 q 483 -201 449 -201 q 535 -182 507 -201 l 535 -232 q 472 -253 504 -253 q 415 -231 436 -253 q 393 -169 393 -210 q 463 0 393 -117 z "},"Ć":{"ha":799,"x_min":54,"x_max":744,"o":"m 161 108 q 108 168 161 108 q 54 426 54 228 q 161 745 54 625 q 429 865 268 865 q 635 799 551 865 q 744 621 718 733 l 675 621 q 584 751 647 704 q 429 799 521 799 q 210 697 294 799 q 126 426 126 596 q 211 156 126 257 q 429 54 296 54 q 584 101 521 54 q 675 232 647 149 l 744 232 q 634 53 718 119 q 429 -12 550 -12 q 161 108 268 -12 m 464 924 l 394 924 l 508 1086 l 586 1086 l 464 924 z "},"ć":{"ha":614,"x_min":54,"x_max":563,"o":"m 357 722 l 289 722 l 404 903 l 478 903 l 357 722 m 129 76 q 92 121 129 76 q 54 308 54 165 q 129 540 54 451 q 326 629 204 629 q 484 577 422 629 q 563 438 546 525 l 492 438 q 435 533 478 499 q 326 567 392 567 q 180 496 236 567 q 124 308 124 425 q 180 121 124 192 q 326 50 236 50 q 435 84 392 50 q 492 179 478 118 l 563 179 q 484 40 546 92 q 326 -12 422 -12 q 129 76 204 -12 z "},"Ĉ":{"ha":799,"x_min":54,"x_max":744,"o":"m 161 108 q 108 168 161 108 q 54 426 54 228 q 161 745 54 625 q 429 865 268 865 q 635 799 551 865 q 744 621 718 733 l 675 621 q 584 751 647 704 q 429 799 521 799 q 210 697 294 799 q 126 426 126 596 q 211 156 126 257 q 429 54 296 54 q 584 101 521 54 q 675 232 647 149 l 744 232 q 634 53 718 119 q 429 -12 550 -12 q 161 108 268 -12 m 467 1092 l 594 926 l 529 926 l 436 1043 l 343 926 l 278 926 l 406 1092 l 467 1092 z "},"ĉ":{"ha":614,"x_min":54,"x_max":563,"o":"m 361 894 l 489 713 l 425 713 l 331 847 l 236 713 l 172 713 l 300 894 l 361 894 m 129 76 q 92 121 129 76 q 54 308 54 165 q 129 540 54 451 q 326 629 204 629 q 484 577 422 629 q 563 438 546 525 l 492 438 q 435 533 478 499 q 326 567 392 567 q 180 496 236 567 q 124 308 124 425 q 180 121 124 192 q 326 50 236 50 q 435 84 392 50 q 492 179 478 118 l 563 179 q 484 40 546 92 q 326 -12 422 -12 q 129 76 204 -12 z "},"Ċ":{"ha":799,"x_min":54,"x_max":744,"o":"m 468 1025 q 475 1018 468 1025 q 482 992 482 1011 q 468 958 482 972 q 435 944 454 944 q 401 958 415 944 q 388 992 388 972 q 401 1025 388 1011 q 435 1039 415 1039 q 468 1025 454 1039 m 161 108 q 108 168 161 108 q 54 426 54 228 q 161 745 54 625 q 429 865 268 865 q 635 799 551 865 q 744 621 718 733 l 675 621 q 584 751 647 704 q 429 799 521 799 q 210 697 294 799 q 126 426 126 596 q 211 156 126 257 q 429 54 296 54 q 584 101 521 54 q 675 232 647 149 l 744 232 q 634 53 718 119 q 429 -12 550 -12 q 161 108 268 -12 z "},"ċ":{"ha":614,"x_min":54,"x_max":563,"o":"m 129 76 q 92 121 129 76 q 54 308 54 165 q 129 540 54 451 q 326 629 204 629 q 484 577 422 629 q 563 438 546 525 l 492 438 q 435 533 478 499 q 326 567 392 567 q 180 496 236 567 q 124 308 124 425 q 180 121 124 192 q 326 50 236 50 q 435 84 392 50 q 492 179 478 118 l 563 179 q 484 40 546 92 q 326 -12 422 -12 q 129 76 204 -12 m 364 838 q 371 831 364 838 q 378 804 378 824 q 364 771 378 785 q 331 757 350 757 q 297 771 311 757 q 283 804 283 785 q 297 838 283 824 q 331 851 311 851 q 364 838 350 851 z "},"Č":{"ha":799,"x_min":54,"x_max":744,"o":"m 404 917 l 276 1082 l 342 1082 l 435 967 l 528 1082 l 593 1082 l 465 917 l 404 917 m 161 108 q 108 168 161 108 q 54 426 54 228 q 161 745 54 625 q 429 865 268 865 q 635 799 551 865 q 744 621 718 733 l 675 621 q 584 751 647 704 q 429 799 521 799 q 210 697 294 799 q 126 426 126 596 q 211 156 126 257 q 429 54 296 54 q 584 101 521 54 q 675 232 647 149 l 744 232 q 634 53 718 119 q 429 -12 550 -12 q 161 108 268 -12 z "},"č":{"ha":614,"x_min":54,"x_max":563,"o":"m 489 896 l 361 715 l 300 715 l 172 896 l 236 896 l 331 764 l 425 896 l 489 896 m 129 76 q 92 121 129 76 q 54 308 54 165 q 129 540 54 451 q 326 629 204 629 q 484 577 422 629 q 563 438 546 525 l 492 438 q 435 533 478 499 q 326 567 392 567 q 180 496 236 567 q 124 308 124 425 q 180 121 124 192 q 326 50 236 50 q 435 84 392 50 q 492 179 478 118 l 563 179 q 484 40 546 92 q 326 -12 422 -12 q 129 76 204 -12 z "},"Ď":{"ha":836,"x_min":110,"x_max":783,"o":"m 354 917 l 226 1082 l 292 1082 l 385 967 l 478 1082 l 543 1082 l 415 917 l 354 917 m 181 65 l 369 65 q 619 164 526 65 q 711 426 711 263 q 619 689 711 590 q 369 788 526 788 l 181 788 l 181 65 m 110 0 l 110 853 l 369 853 q 669 737 556 853 q 783 426 783 621 q 669 116 783 232 q 369 0 556 0 l 110 0 z "},"ď":{"ha":683,"x_min":54,"x_max":764,"o":"m 719 681 l 663 681 l 708 903 l 764 903 l 719 681 m 515 0 l 515 92 q 435 18 488 49 q 324 -12 383 -12 q 124 80 193 -12 q 54 308 54 172 q 124 537 54 444 q 324 629 193 629 q 435 599 383 629 q 515 525 488 568 l 515 903 l 583 903 l 583 0 l 515 0 m 515 174 l 515 443 q 435 533 485 501 q 329 565 386 565 q 179 494 235 565 q 124 308 124 422 q 179 123 124 194 q 329 51 235 51 q 435 83 386 51 q 515 174 485 115 z "},"Đ":{"ha":856,"x_min":47,"x_max":801,"o":"m 47 410 l 47 472 l 128 472 l 128 853 l 388 853 q 688 737 574 853 q 801 426 801 621 q 688 116 801 232 q 388 0 574 0 l 128 0 l 128 410 l 47 410 m 199 65 l 388 65 q 637 164 544 65 q 729 426 729 263 q 637 689 729 590 q 388 788 544 788 l 199 788 l 199 472 l 379 472 l 379 410 l 199 410 l 199 65 z "},"đ":{"ha":683,"x_min":54,"x_max":657,"o":"m 356 722 l 356 774 l 515 774 l 515 903 l 583 903 l 583 774 l 657 774 l 657 722 l 583 722 l 583 0 l 515 0 l 515 92 q 435 18 488 49 q 324 -12 383 -12 q 124 80 193 -12 q 54 308 54 172 q 124 537 54 444 q 324 629 193 629 q 435 599 383 629 q 515 525 488 568 l 515 722 l 356 722 m 515 174 l 515 443 q 435 533 485 501 q 329 565 386 565 q 179 494 235 565 q 124 308 124 422 q 179 123 124 194 q 329 51 235 51 q 435 83 386 51 q 515 174 485 115 z "},"Ē":{"ha":715,"x_min":110,"x_max":639,"o":"m 242 931 l 242 989 l 521 989 l 521 931 l 242 931 m 110 853 l 639 853 l 639 788 l 179 788 l 179 472 l 596 472 l 596 407 l 179 407 l 179 65 l 639 65 l 639 0 l 110 0 l 110 853 z "},"ē":{"ha":629,"x_min":54,"x_max":576,"o":"m 190 746 l 190 803 l 469 803 l 469 746 l 190 746 m 500 179 l 567 179 q 485 40 549 92 q 328 -12 422 -12 q 130 76 206 -12 q 54 308 54 165 q 128 539 54 449 q 326 629 203 629 q 511 547 446 629 q 576 328 576 464 l 576 303 l 122 303 q 181 117 124 186 q 328 49 238 49 q 440 83 393 49 q 500 179 486 118 m 326 568 q 190 511 243 568 q 125 357 136 454 l 507 357 q 458 507 504 446 q 326 568 413 568 z "},"Ĕ":{"ha":715,"x_min":110,"x_max":639,"o":"m 483 965 q 464 943 483 965 q 381 922 444 922 q 277 965 317 922 q 238 1085 238 1007 l 293 1085 q 317 1004 293 1033 q 381 975 342 975 q 444 1004 419 975 q 468 1085 468 1033 l 522 1085 q 483 965 522 1007 m 110 853 l 639 853 l 639 788 l 179 788 l 179 472 l 596 472 l 596 407 l 179 407 l 179 65 l 639 65 l 639 0 l 110 0 l 110 853 z "},"ĕ":{"ha":629,"x_min":54,"x_max":576,"o":"m 500 179 l 567 179 q 485 40 549 92 q 328 -12 422 -12 q 130 76 206 -12 q 54 308 54 165 q 128 539 54 449 q 326 629 203 629 q 511 547 446 629 q 576 328 576 464 l 576 303 l 122 303 q 181 117 124 186 q 328 49 238 49 q 440 83 393 49 q 500 179 486 118 m 326 568 q 190 511 243 568 q 125 357 136 454 l 507 357 q 458 507 504 446 q 326 568 413 568 m 432 747 q 413 725 432 747 q 329 703 393 703 q 226 747 265 703 q 188 869 188 790 l 243 869 q 267 785 243 815 q 329 754 290 754 q 392 785 368 754 q 415 869 415 815 l 471 869 q 432 747 471 790 z "},"Ė":{"ha":715,"x_min":110,"x_max":639,"o":"m 414 1025 q 421 1018 414 1025 q 428 992 428 1011 q 414 958 428 972 q 381 944 400 944 q 347 958 361 944 q 333 992 333 972 q 347 1025 333 1011 q 381 1039 361 1039 q 414 1025 400 1039 m 110 853 l 639 853 l 639 788 l 179 788 l 179 472 l 596 472 l 596 407 l 179 407 l 179 65 l 639 65 l 639 0 l 110 0 l 110 853 z "},"ė":{"ha":629,"x_min":54,"x_max":576,"o":"m 500 179 l 567 179 q 485 40 549 92 q 328 -12 422 -12 q 130 76 206 -12 q 54 308 54 165 q 128 539 54 449 q 326 629 203 629 q 511 547 446 629 q 576 328 576 464 l 576 303 l 122 303 q 181 117 124 186 q 328 49 238 49 q 440 83 393 49 q 500 179 486 118 m 326 568 q 190 511 243 568 q 125 357 136 454 l 507 357 q 458 507 504 446 q 326 568 413 568 m 363 838 q 369 831 363 838 q 376 804 376 824 q 363 771 376 785 q 329 757 349 757 q 296 771 310 757 q 282 804 282 785 q 296 838 282 824 q 329 851 310 851 q 363 838 349 851 z "},"Ę":{"ha":715,"x_min":110,"x_max":639,"o":"m 110 853 l 639 853 l 639 788 l 179 788 l 179 472 l 596 472 l 596 407 l 179 407 l 179 65 l 639 65 l 639 0 l 590 0 q 535 -103 549 -71 q 522 -162 522 -135 q 557 -201 522 -201 q 608 -182 581 -201 l 608 -232 q 546 -253 578 -253 q 488 -231 510 -253 q 467 -169 467 -210 q 481 -105 467 -139 q 535 0 496 -71 l 110 0 l 110 853 z "},"ę":{"ha":629,"x_min":54,"x_max":576,"o":"m 326 568 q 190 511 243 568 q 125 357 136 454 l 507 357 q 458 507 504 446 q 326 568 413 568 m 406 4 q 328 -12 369 -12 q 130 76 206 -12 q 54 308 54 165 q 128 539 54 449 q 326 629 203 629 q 511 547 446 629 q 576 328 576 464 l 576 303 l 122 303 q 181 117 124 186 q 328 49 238 49 q 440 83 393 49 q 500 179 486 118 l 567 179 q 482 32 550 104 q 375 -154 375 -82 q 411 -201 375 -201 q 463 -182 432 -201 l 463 -232 q 400 -253 431 -253 q 341 -230 364 -253 q 318 -167 318 -207 q 406 4 318 -97 z "},"Ě":{"ha":715,"x_min":110,"x_max":639,"o":"m 353 917 l 225 1082 l 290 1082 l 383 967 l 476 1082 l 542 1082 l 414 917 l 353 917 m 110 853 l 639 853 l 639 788 l 179 788 l 179 472 l 596 472 l 596 407 l 179 407 l 179 65 l 639 65 l 639 0 l 110 0 l 110 853 z "},"ě":{"ha":629,"x_min":54,"x_max":576,"o":"m 488 896 l 360 715 l 299 715 l 171 896 l 235 896 l 329 764 l 424 896 l 488 896 m 500 179 l 567 179 q 485 40 549 92 q 328 -12 422 -12 q 130 76 206 -12 q 54 308 54 165 q 128 539 54 449 q 326 629 203 629 q 511 547 446 629 q 576 328 576 464 l 576 303 l 122 303 q 181 117 124 186 q 328 49 238 49 q 440 83 393 49 q 500 179 486 118 m 326 568 q 190 511 243 568 q 125 357 136 454 l 507 357 q 458 507 504 446 q 326 568 413 568 z "},"Ĝ":{"ha":831,"x_min":54,"x_max":778,"o":"m 469 1092 l 597 926 l 532 926 l 439 1043 l 346 926 l 281 926 l 408 1092 l 469 1092 m 710 338 l 488 338 l 488 400 l 778 400 l 778 350 q 685 87 778 186 q 436 -12 592 -12 q 163 108 272 -12 q 54 426 54 228 q 163 745 54 625 q 435 865 272 865 q 643 799 558 865 q 756 621 728 733 l 685 621 q 435 799 624 799 q 213 697 299 799 q 126 426 126 596 q 213 154 126 256 q 436 53 299 53 q 633 128 563 53 q 710 338 704 203 z "},"ĝ":{"ha":678,"x_min":54,"x_max":579,"o":"m 378 894 l 506 713 l 442 713 l 347 847 l 253 713 l 189 713 l 317 894 l 378 894 m 510 40 l 510 106 q 431 33 482 63 q 319 4 379 4 q 123 94 192 4 q 54 317 54 185 q 123 539 54 449 q 319 629 192 629 q 431 599 379 629 q 510 526 482 569 l 510 617 l 579 617 l 579 44 q 509 -173 579 -97 q 319 -249 439 -249 q 149 -199 214 -249 q 67 -61 83 -150 l 136 -61 q 319 -189 167 -189 q 460 -131 411 -189 q 510 40 510 -72 m 510 186 l 510 446 q 431 534 479 503 q 326 565 383 565 q 178 497 232 565 q 124 317 124 428 q 178 135 124 204 q 326 67 232 67 q 431 98 383 67 q 510 186 479 129 z "},"Ğ":{"ha":831,"x_min":54,"x_max":778,"o":"m 543 965 q 524 943 543 965 q 440 922 504 922 q 337 965 376 922 q 297 1085 297 1007 l 353 1085 q 377 1004 353 1033 q 440 975 401 975 q 503 1004 479 975 q 528 1085 528 1033 l 582 1085 q 543 965 582 1007 m 710 338 l 488 338 l 488 400 l 778 400 l 778 350 q 685 87 778 186 q 436 -12 592 -12 q 163 108 272 -12 q 54 426 54 228 q 163 745 54 625 q 435 865 272 865 q 643 799 558 865 q 756 621 728 733 l 685 621 q 435 799 624 799 q 213 697 299 799 q 126 426 126 596 q 213 154 126 256 q 436 53 299 53 q 633 128 563 53 q 710 338 704 203 z "},"ğ":{"ha":678,"x_min":54,"x_max":579,"o":"m 510 40 l 510 106 q 431 33 482 63 q 319 4 379 4 q 123 94 192 4 q 54 317 54 185 q 123 539 54 449 q 319 629 192 629 q 431 599 379 629 q 510 526 482 569 l 510 617 l 579 617 l 579 44 q 509 -173 579 -97 q 319 -249 439 -249 q 149 -199 214 -249 q 67 -61 83 -150 l 136 -61 q 319 -189 167 -189 q 460 -131 411 -189 q 510 40 510 -72 m 510 186 l 510 446 q 431 534 479 503 q 326 565 383 565 q 178 497 232 565 q 124 317 124 428 q 178 135 124 204 q 326 67 232 67 q 431 98 383 67 q 510 186 479 129 m 450 747 q 431 725 450 747 q 347 703 411 703 q 244 747 283 703 q 206 869 206 790 l 261 869 q 285 785 261 815 q 347 754 308 754 q 410 785 386 754 q 433 869 433 815 l 489 869 q 450 747 489 790 z "},"Ġ":{"ha":831,"x_min":54,"x_max":778,"o":"m 474 1025 q 481 1018 474 1025 q 488 992 488 1011 q 474 958 488 972 q 440 944 460 944 q 407 958 421 944 q 393 992 393 972 q 407 1025 393 1011 q 440 1039 421 1039 q 474 1025 460 1039 m 710 338 l 488 338 l 488 400 l 778 400 l 778 350 q 685 87 778 186 q 436 -12 592 -12 q 163 108 272 -12 q 54 426 54 228 q 163 745 54 625 q 435 865 272 865 q 643 799 558 865 q 756 621 728 733 l 685 621 q 435 799 624 799 q 213 697 299 799 q 126 426 126 596 q 213 154 126 256 q 436 53 299 53 q 633 128 563 53 q 710 338 704 203 z "},"ġ":{"ha":678,"x_min":54,"x_max":579,"o":"m 381 838 q 388 831 381 838 q 394 804 394 824 q 381 771 394 785 q 347 757 367 757 q 314 771 328 757 q 300 804 300 785 q 314 838 300 824 q 347 851 328 851 q 381 838 367 851 m 510 40 l 510 106 q 431 33 482 63 q 319 4 379 4 q 123 94 192 4 q 54 317 54 185 q 123 539 54 449 q 319 629 192 629 q 431 599 379 629 q 510 526 482 569 l 510 617 l 579 617 l 579 44 q 509 -173 579 -97 q 319 -249 439 -249 q 149 -199 214 -249 q 67 -61 83 -150 l 136 -61 q 319 -189 167 -189 q 460 -131 411 -189 q 510 40 510 -72 m 510 186 l 510 446 q 431 534 479 503 q 326 565 383 565 q 178 497 232 565 q 124 317 124 428 q 178 135 124 204 q 326 67 232 67 q 431 98 383 67 q 510 186 479 129 z "},"Ģ":{"ha":831,"x_min":54,"x_max":778,"o":"m 388 -254 l 438 -161 q 396 -114 396 -153 q 410 -79 396 -93 q 447 -65 425 -65 q 482 -80 468 -65 q 496 -117 496 -94 q 476 -174 496 -137 l 433 -254 l 388 -254 m 710 338 l 488 338 l 488 400 l 778 400 l 778 350 q 685 87 778 186 q 436 -12 592 -12 q 163 108 272 -12 q 54 426 54 228 q 163 745 54 625 q 435 865 272 865 q 643 799 558 865 q 756 621 728 733 l 685 621 q 435 799 624 799 q 213 697 299 799 q 126 426 126 596 q 213 154 126 256 q 436 53 299 53 q 633 128 563 53 q 710 338 704 203 z "},"ģ":{"ha":678,"x_min":54,"x_max":579,"o":"m 401 921 l 351 826 q 392 779 392 819 q 377 744 392 758 q 342 729 363 729 q 305 744 319 729 q 290 781 290 758 q 311 839 290 806 l 354 921 l 401 921 m 510 40 l 510 106 q 431 33 482 63 q 319 4 379 4 q 123 94 192 4 q 54 317 54 185 q 123 539 54 449 q 319 629 192 629 q 431 599 379 629 q 510 526 482 569 l 510 617 l 579 617 l 579 44 q 509 -173 579 -97 q 319 -249 439 -249 q 149 -199 214 -249 q 67 -61 83 -150 l 136 -61 q 319 -189 167 -189 q 460 -131 411 -189 q 510 40 510 -72 m 510 186 l 510 446 q 431 534 479 503 q 326 565 383 565 q 178 497 232 565 q 124 317 124 428 q 178 135 124 204 q 326 67 232 67 q 431 98 383 67 q 510 186 479 129 z "},"Ĥ":{"ha":901,"x_min":110,"x_max":792,"o":"m 721 853 l 792 853 l 792 0 l 721 0 l 721 407 l 181 407 l 181 0 l 110 0 l 110 853 l 181 853 l 181 472 l 721 472 l 721 853 m 482 1092 l 610 926 l 544 926 l 451 1043 l 358 926 l 293 926 l 421 1092 l 482 1092 z "},"ĥ":{"ha":671,"x_min":99,"x_max":579,"o":"m 99 0 l 99 903 l 168 903 l 168 518 q 251 597 199 565 q 365 629 303 629 q 524 569 468 629 q 579 408 579 508 l 579 0 l 511 0 l 511 399 q 472 519 511 474 q 353 565 432 565 q 242 528 292 565 q 168 432 192 490 l 168 0 l 99 0 m 369 1099 l 497 933 l 432 933 l 339 1050 l 246 933 l 181 933 l 308 1099 l 369 1099 z "},"Ħ":{"ha":938,"x_min":47,"x_max":890,"o":"m 47 608 l 47 669 l 128 669 l 128 853 l 199 853 l 199 669 l 739 669 l 739 853 l 810 853 l 810 669 l 890 669 l 890 608 l 810 608 l 810 0 l 739 0 l 739 361 l 199 361 l 199 0 l 128 0 l 128 608 l 47 608 m 199 422 l 739 422 l 739 608 l 199 608 l 199 422 z "},"ħ":{"ha":671,"x_min":26,"x_max":579,"o":"m 26 722 l 26 774 l 99 774 l 99 903 l 168 903 l 168 774 l 328 774 l 328 722 l 168 722 l 168 518 q 251 597 199 565 q 365 629 303 629 q 524 569 468 629 q 579 408 579 508 l 579 0 l 511 0 l 511 399 q 472 519 511 474 q 353 565 432 565 q 242 528 292 565 q 168 432 192 490 l 168 0 l 99 0 l 99 722 l 26 722 z "},"Ĩ":{"ha":290,"x_min":-29,"x_max":319,"o":"m 181 853 l 181 0 l 110 0 l 110 853 l 181 853 m 271 1068 l 319 1068 q 294 963 319 1001 q 224 924 269 924 q 140 968 186 924 q 71 1013 94 1013 q 21 928 21 1013 l -29 928 q -4 1033 -29 994 q 67 1072 21 1072 q 151 1028 106 1072 q 219 983 196 983 q 271 1068 268 983 z "},"ĩ":{"ha":267,"x_min":-4,"x_max":269,"o":"m 225 868 l 269 868 q 250 762 269 801 q 194 722 231 722 q 158 736 176 722 q 128 767 140 750 q 103 797 117 783 q 76 811 89 811 q 42 726 42 811 l -4 726 q 16 833 -4 793 q 71 872 36 872 q 138 828 103 872 q 189 783 174 783 q 225 868 222 783 m 168 617 l 168 0 l 99 0 l 99 617 l 168 617 z "},"Ī":{"ha":290,"x_min":6,"x_max":285,"o":"m 181 853 l 181 0 l 110 0 l 110 853 l 181 853 m 6 931 l 6 989 l 285 989 l 285 931 l 6 931 z "},"ī":{"ha":267,"x_min":26,"x_max":244,"o":"m 168 617 l 168 0 l 99 0 l 99 617 l 168 617 m 26 746 l 26 803 l 244 803 l 244 746 l 26 746 z "},"Ĭ":{"ha":290,"x_min":1,"x_max":286,"o":"m 181 853 l 181 0 l 110 0 l 110 853 l 181 853 m 247 965 q 228 943 247 965 q 144 922 208 922 q 41 965 81 922 q 1 1085 1 1007 l 57 1085 q 81 1004 57 1033 q 144 975 106 975 q 208 1004 183 975 q 232 1085 232 1033 l 286 1085 q 247 965 286 1007 z "},"ĭ":{"ha":267,"x_min":10,"x_max":260,"o":"m 135 703 q 44 747 78 703 q 10 869 10 790 l 63 869 q 81 785 63 815 q 135 754 100 754 q 188 785 168 754 q 207 869 207 815 l 260 869 q 225 747 260 790 q 135 703 190 703 m 168 617 l 168 0 l 99 0 l 99 617 l 168 617 z "},"Į":{"ha":290,"x_min":56,"x_max":197,"o":"m 181 853 l 181 0 q 124 -105 138 -74 q 111 -162 111 -136 q 146 -201 111 -201 q 197 -182 169 -201 l 197 -232 q 135 -253 167 -253 q 77 -231 99 -253 q 56 -169 56 -210 q 125 0 56 -121 l 110 0 l 110 853 l 181 853 z "},"į":{"ha":267,"x_min":42,"x_max":185,"o":"m 168 617 l 168 0 q 112 -105 125 -74 q 99 -162 99 -136 q 133 -201 99 -201 q 185 -182 154 -201 l 185 -232 q 122 -253 153 -253 q 64 -231 86 -253 q 42 -169 42 -210 q 113 0 42 -119 l 99 0 l 99 617 l 168 617 m 167 838 q 174 831 167 838 q 181 804 181 824 q 167 771 181 785 q 133 757 153 757 q 100 771 114 757 q 86 804 86 785 q 100 838 86 824 q 133 851 114 851 q 167 838 153 851 z "},"İ":{"ha":290,"x_min":97,"x_max":192,"o":"m 181 853 l 181 0 l 110 0 l 110 853 l 181 853 m 178 1025 q 185 1018 178 1025 q 192 992 192 1011 q 178 958 192 972 q 144 944 164 944 q 111 958 125 944 q 97 992 97 972 q 111 1025 97 1011 q 144 1039 125 1039 q 178 1025 164 1039 z "},"ı":{"ha":267,"x_min":99,"x_max":168,"o":"m 168 617 l 168 0 l 99 0 l 99 617 l 168 617 z "},"Ĳ":{"ha":903,"x_min":110,"x_max":810,"o":"m 274 236 l 347 236 q 409 103 357 151 q 543 54 461 54 q 685 108 632 54 q 739 271 739 161 l 739 853 l 810 853 l 810 271 q 735 60 810 133 q 543 -12 661 -12 q 356 55 429 -12 q 274 236 282 122 m 181 853 l 181 0 l 110 0 l 110 853 l 181 853 z "},"ĳ":{"ha":533,"x_min":86,"x_max":447,"o":"m 168 617 l 168 0 l 99 0 l 99 617 l 168 617 m 167 838 q 174 831 167 838 q 181 804 181 824 q 167 771 181 785 q 133 757 153 757 q 100 771 114 757 q 86 804 86 785 q 100 838 86 824 q 133 851 114 851 q 167 838 153 851 m 435 617 l 435 -89 q 394 -208 435 -167 q 279 -249 353 -249 q 247 -244 258 -249 l 247 -183 q 275 -187 258 -187 q 343 -165 321 -187 q 365 -82 365 -142 l 365 617 l 435 617 m 433 838 q 440 831 433 838 q 447 804 447 824 q 433 771 447 785 q 400 757 419 757 q 367 771 381 757 q 353 804 353 785 q 367 838 353 824 q 400 851 381 851 q 433 838 419 851 z "},"Ĵ":{"ha":656,"x_min":26,"x_max":688,"o":"m 26 236 l 100 236 q 161 103 110 153 q 294 54 213 54 q 438 108 383 54 q 492 271 492 161 l 492 853 l 563 853 l 563 271 q 488 60 563 133 q 296 -12 414 -12 q 108 55 181 -12 q 26 236 35 122 m 560 1092 l 688 926 l 622 926 l 529 1043 l 436 926 l 371 926 l 499 1092 l 560 1092 z "},"ĵ":{"ha":267,"x_min":-19,"x_max":264,"o":"m 164 894 l 264 713 l 203 713 l 133 843 l 64 713 l 3 713 l 103 894 l 164 894 m 168 617 l 168 -89 q 127 -208 168 -167 q 13 -249 86 -249 q -19 -244 -10 -249 l -19 -183 q 8 -187 -8 -187 q 76 -165 54 -187 q 99 -82 99 -142 l 99 617 l 168 617 z "},"Ķ":{"ha":756,"x_min":110,"x_max":731,"o":"m 297 -254 l 347 -161 q 306 -114 306 -153 q 320 -79 306 -93 q 357 -65 335 -65 q 392 -80 378 -65 q 406 -117 406 -94 q 386 -174 406 -137 l 343 -254 l 297 -254 m 181 853 l 181 406 l 625 853 l 717 853 l 328 464 l 731 0 l 642 0 l 276 415 l 181 318 l 181 0 l 110 0 l 110 853 l 181 853 z "},"ķ":{"ha":619,"x_min":99,"x_max":596,"o":"m 242 -254 l 292 -161 q 250 -114 250 -153 q 265 -79 250 -93 q 301 -65 279 -65 q 336 -80 322 -65 q 350 -117 350 -94 q 331 -174 350 -137 l 288 -254 l 242 -254 m 511 0 l 243 308 l 168 239 l 168 0 l 99 0 l 99 903 l 168 903 l 168 319 l 494 617 l 586 617 l 293 351 l 596 0 l 511 0 z "},"ĸ":{"ha":619,"x_min":99,"x_max":596,"o":"m 511 0 l 243 308 l 168 239 l 168 0 l 99 0 l 99 617 l 168 617 l 168 319 l 494 617 l 586 617 l 293 351 l 596 0 l 511 0 z "},"Ĺ":{"ha":699,"x_min":110,"x_max":643,"o":"m 189 924 l 119 924 l 233 1086 l 311 1086 l 189 924 m 110 0 l 110 853 l 181 853 l 181 65 l 643 65 l 643 0 l 110 0 z "},"ĺ":{"ha":267,"x_min":99,"x_max":292,"o":"m 169 956 l 100 956 l 214 1118 l 292 1118 l 169 956 m 168 903 l 168 0 l 99 0 l 99 903 l 168 903 z "},"Ļ":{"ha":699,"x_min":110,"x_max":643,"o":"m 329 -254 l 379 -161 q 338 -114 338 -153 q 352 -79 338 -93 q 389 -65 367 -65 q 424 -80 410 -65 q 438 -117 438 -94 q 418 -174 438 -137 l 375 -254 l 329 -254 m 110 0 l 110 853 l 181 853 l 181 65 l 643 65 l 643 0 l 110 0 z "},"ļ":{"ha":267,"x_min":75,"x_max":183,"o":"m 75 -254 l 125 -161 q 83 -114 83 -153 q 98 -79 83 -93 q 135 -65 113 -65 q 169 -80 156 -65 q 183 -117 183 -94 q 164 -174 183 -137 l 121 -254 l 75 -254 m 168 903 l 168 0 l 99 0 l 99 903 l 168 903 z "},"Ľ":{"ha":699,"x_min":110,"x_max":643,"o":"m 419 631 l 363 631 l 408 853 l 464 853 l 419 631 m 110 0 l 110 853 l 181 853 l 181 65 l 643 65 l 643 0 l 110 0 z "},"ľ":{"ha":267,"x_min":99,"x_max":349,"o":"m 304 681 l 247 681 l 293 903 l 349 903 l 304 681 m 168 903 l 168 0 l 99 0 l 99 903 l 168 903 z "},"Ŀ":{"ha":699,"x_min":110,"x_max":643,"o":"m 110 0 l 110 853 l 181 853 l 181 65 l 643 65 l 643 0 l 110 0 m 533 460 q 540 453 533 460 q 547 426 547 446 q 533 393 547 407 q 500 379 519 379 q 467 393 481 379 q 453 426 453 407 q 467 460 453 446 q 500 474 481 474 q 533 460 519 474 z "},"ŀ":{"ha":413,"x_min":99,"x_max":386,"o":"m 168 903 l 168 0 l 99 0 l 99 903 l 168 903 m 372 485 q 379 478 372 485 q 386 451 386 471 q 372 418 386 432 q 339 404 358 404 q 306 418 319 404 q 292 451 292 432 q 306 485 292 471 q 339 499 319 499 q 372 485 358 499 z "},"Ł":{"ha":715,"x_min":42,"x_max":660,"o":"m 42 342 l 42 410 l 126 443 l 126 853 l 197 853 l 197 469 l 415 558 l 415 490 l 197 403 l 197 65 l 660 65 l 660 0 l 126 0 l 126 376 l 42 342 z "},"ł":{"ha":321,"x_min":42,"x_max":286,"o":"m 194 903 l 194 565 l 286 629 l 286 561 l 194 497 l 194 0 l 125 0 l 125 458 l 42 401 l 42 469 l 125 526 l 125 903 l 194 903 z "},"Ń":{"ha":856,"x_min":110,"x_max":746,"o":"m 456 924 l 386 924 l 500 1086 l 578 1086 l 456 924 m 746 853 l 746 0 l 699 0 l 178 740 l 178 0 l 110 0 l 110 853 l 178 853 l 678 142 l 678 853 l 746 853 z "},"ń":{"ha":671,"x_min":99,"x_max":579,"o":"m 368 722 l 300 722 l 415 903 l 489 903 l 368 722 m 99 0 l 99 617 l 168 617 l 168 518 q 251 597 199 565 q 365 629 303 629 q 524 569 468 629 q 579 408 579 508 l 579 0 l 511 0 l 511 399 q 472 519 511 474 q 353 565 432 565 q 242 528 292 565 q 168 432 192 490 l 168 0 l 99 0 z "},"Ņ":{"ha":856,"x_min":110,"x_max":746,"o":"m 375 -254 l 425 -161 q 383 -114 383 -153 q 398 -79 383 -93 q 435 -65 413 -65 q 469 -80 456 -65 q 483 -117 483 -94 q 464 -174 483 -137 l 421 -254 l 375 -254 m 746 853 l 746 0 l 699 0 l 178 740 l 178 0 l 110 0 l 110 853 l 178 853 l 678 142 l 678 853 l 746 853 z "},"ņ":{"ha":671,"x_min":99,"x_max":579,"o":"m 290 -254 l 340 -161 q 299 -114 299 -153 q 313 -79 299 -93 q 350 -65 328 -65 q 385 -80 371 -65 q 399 -117 399 -94 q 379 -174 399 -137 l 336 -254 l 290 -254 m 99 0 l 99 617 l 168 617 l 168 518 q 251 597 199 565 q 365 629 303 629 q 524 569 468 629 q 579 408 579 508 l 579 0 l 511 0 l 511 399 q 472 519 511 474 q 353 565 432 565 q 242 528 292 565 q 168 432 192 490 l 168 0 l 99 0 z "},"Ň":{"ha":856,"x_min":110,"x_max":746,"o":"m 397 917 l 269 1082 l 335 1082 l 428 967 l 521 1082 l 586 1082 l 458 917 l 397 917 m 746 853 l 746 0 l 699 0 l 178 740 l 178 0 l 110 0 l 110 853 l 178 853 l 678 142 l 678 853 l 746 853 z "},"ň":{"ha":671,"x_min":99,"x_max":579,"o":"m 500 896 l 372 715 l 311 715 l 183 896 l 247 896 l 342 764 l 436 896 l 500 896 m 99 0 l 99 617 l 168 617 l 168 518 q 251 597 199 565 q 365 629 303 629 q 524 569 468 629 q 579 408 579 508 l 579 0 l 511 0 l 511 399 q 472 519 511 474 q 353 565 432 565 q 242 528 292 565 q 168 432 192 490 l 168 0 l 99 0 z "},"Ŋ":{"ha":856,"x_min":110,"x_max":746,"o":"m 364 -207 l 364 -133 q 514 -187 433 -187 q 638 -137 597 -187 q 678 29 678 -86 l 178 740 l 178 0 l 110 0 l 110 853 l 178 853 l 678 142 l 678 853 l 746 853 l 746 29 q 515 -254 746 -254 q 364 -207 431 -254 z "},"ŋ":{"ha":671,"x_min":99,"x_max":579,"o":"m 511 -82 l 511 399 q 472 519 511 474 q 353 565 432 565 q 242 528 292 565 q 168 432 192 490 l 168 0 l 99 0 l 99 617 l 168 617 l 168 518 q 251 597 199 565 q 365 629 303 629 q 524 569 468 629 q 579 408 579 508 l 579 -89 q 539 -208 579 -167 q 425 -249 499 -249 q 392 -244 404 -249 l 392 -183 q 421 -187 403 -187 q 489 -165 467 -187 q 511 -82 511 -142 z "},"Ō":{"ha":861,"x_min":54,"x_max":808,"o":"m 292 931 l 292 989 l 571 989 l 571 931 l 292 931 m 702 743 q 755 682 702 743 q 808 426 808 621 q 702 110 808 232 q 431 -12 596 -12 q 160 110 267 -12 q 54 426 54 232 q 160 743 54 621 q 431 865 267 865 q 702 743 596 865 m 651 158 q 694 209 651 158 q 736 426 736 261 q 651 695 736 592 q 431 799 567 799 q 211 695 296 799 q 126 426 126 592 q 211 158 126 261 q 431 54 296 54 q 651 158 567 54 z "},"ō":{"ha":654,"x_min":54,"x_max":600,"o":"m 188 746 l 188 803 l 467 803 l 467 746 l 188 746 m 524 540 q 562 496 524 540 q 600 308 600 451 q 524 76 600 165 q 326 -12 449 -12 q 129 76 204 -12 q 54 308 54 165 q 129 540 54 451 q 326 629 204 629 q 524 540 449 629 m 475 120 q 503 156 475 120 q 531 308 531 192 q 475 497 531 425 q 326 568 419 568 q 179 497 235 568 q 124 308 124 425 q 179 120 124 192 q 326 49 235 49 q 475 120 419 49 z "},"Ŏ":{"ha":861,"x_min":54,"x_max":808,"o":"m 533 965 q 514 943 533 965 q 431 922 494 922 q 327 965 367 922 q 288 1085 288 1007 l 343 1085 q 367 1004 343 1033 q 431 975 392 975 q 494 1004 469 975 q 518 1085 518 1033 l 572 1085 q 533 965 572 1007 m 702 743 q 755 682 702 743 q 808 426 808 621 q 702 110 808 232 q 431 -12 596 -12 q 160 110 267 -12 q 54 426 54 232 q 160 743 54 621 q 431 865 267 865 q 702 743 596 865 m 651 158 q 694 209 651 158 q 736 426 736 261 q 651 695 736 592 q 431 799 567 799 q 211 695 296 799 q 126 426 126 592 q 211 158 126 261 q 431 54 296 54 q 651 158 567 54 z "},"ŏ":{"ha":654,"x_min":54,"x_max":600,"o":"m 524 540 q 562 496 524 540 q 600 308 600 451 q 524 76 600 165 q 326 -12 449 -12 q 129 76 204 -12 q 54 308 54 165 q 129 540 54 451 q 326 629 204 629 q 524 540 449 629 m 475 120 q 503 156 475 120 q 531 308 531 192 q 475 497 531 425 q 326 568 419 568 q 179 497 235 568 q 124 308 124 425 q 179 120 124 192 q 326 49 235 49 q 475 120 419 49 m 429 747 q 410 725 429 747 q 326 703 390 703 q 224 747 263 703 q 185 869 185 790 l 240 869 q 264 785 240 815 q 326 754 288 754 q 389 785 365 754 q 413 869 413 815 l 468 869 q 429 747 468 790 z "},"Ő":{"ha":861,"x_min":54,"x_max":808,"o":"m 702 743 q 755 682 702 743 q 808 426 808 621 q 702 110 808 232 q 431 -12 596 -12 q 160 110 267 -12 q 54 426 54 232 q 160 743 54 621 q 431 865 267 865 q 702 743 596 865 m 651 158 q 694 209 651 158 q 736 426 736 261 q 651 695 736 592 q 431 799 567 799 q 211 695 296 799 q 126 426 126 592 q 211 158 126 261 q 431 54 296 54 q 651 158 567 54 m 388 924 l 325 924 l 428 1086 l 492 1086 l 388 924 m 543 924 l 479 924 l 582 1086 l 646 1086 l 543 924 z "},"ő":{"ha":654,"x_min":54,"x_max":600,"o":"m 279 722 l 217 722 l 319 903 l 382 903 l 279 722 m 432 722 l 369 722 l 472 903 l 535 903 l 432 722 m 524 540 q 562 496 524 540 q 600 308 600 451 q 524 76 600 165 q 326 -12 449 -12 q 129 76 204 -12 q 54 308 54 165 q 129 540 54 451 q 326 629 204 629 q 524 540 449 629 m 475 120 q 503 156 475 120 q 531 308 531 192 q 475 497 531 425 q 326 568 419 568 q 179 497 235 568 q 124 308 124 425 q 179 120 124 192 q 326 49 235 49 q 475 120 419 49 z "},"Œ":{"ha":1167,"x_min":54,"x_max":1089,"o":"m 1089 853 l 1089 788 l 649 788 l 649 472 l 1046 472 l 1046 407 l 649 407 l 649 65 l 1089 65 l 1089 0 l 468 0 q 168 116 282 0 q 54 426 54 232 q 168 737 54 621 q 468 853 282 853 l 1089 853 m 467 65 l 578 65 l 578 788 l 467 788 q 218 689 311 788 q 125 426 125 590 q 218 164 125 263 q 467 65 311 65 z "},"œ":{"ha":1101,"x_min":54,"x_max":1050,"o":"m 800 -12 q 658 29 719 -12 q 563 146 596 71 q 467 30 529 72 q 326 -12 406 -12 q 129 76 204 -12 q 54 308 54 165 q 129 540 54 451 q 326 629 204 629 q 469 585 407 629 q 563 467 531 542 q 656 585 594 542 q 799 629 717 629 q 984 546 918 629 q 1050 328 1050 463 l 1050 303 l 596 303 q 653 117 597 186 q 800 49 710 49 q 912 83 865 49 q 972 179 958 118 l 1039 179 q 958 40 1021 92 q 800 -12 894 -12 m 475 120 q 503 156 475 120 q 531 308 531 192 q 475 497 531 425 q 326 568 419 568 q 179 497 235 568 q 124 308 124 425 q 179 120 124 192 q 326 49 235 49 q 475 120 419 49 m 799 568 q 662 510 715 568 q 597 357 608 453 l 979 357 q 931 507 976 446 q 799 568 886 568 z "},"Ŕ":{"ha":763,"x_min":110,"x_max":719,"o":"m 385 376 l 181 376 l 181 0 l 110 0 l 110 853 l 411 853 q 608 791 538 853 q 679 614 679 729 q 622 451 679 511 q 463 379 565 392 l 719 0 l 638 0 l 385 376 m 181 789 l 181 439 l 408 439 q 558 485 506 439 q 610 614 610 531 q 558 744 610 699 q 408 789 506 789 l 181 789 m 394 924 l 325 924 l 439 1086 l 517 1086 l 394 924 z "},"ŕ":{"ha":418,"x_min":99,"x_max":392,"o":"m 271 722 l 203 722 l 318 903 l 392 903 l 271 722 m 389 621 l 389 553 q 332 564 363 564 q 233 528 276 564 q 168 431 190 492 l 168 0 l 99 0 l 99 617 l 168 617 l 168 518 q 235 598 190 567 q 335 629 279 629 q 389 621 361 629 z "},"Ŗ":{"ha":763,"x_min":110,"x_max":719,"o":"m 385 376 l 181 376 l 181 0 l 110 0 l 110 853 l 411 853 q 608 791 538 853 q 679 614 679 729 q 622 451 679 511 q 463 379 565 392 l 719 0 l 638 0 l 385 376 m 181 789 l 181 439 l 408 439 q 558 485 506 439 q 610 614 610 531 q 558 744 610 699 q 408 789 506 789 l 181 789 m 315 -254 l 365 -161 q 324 -114 324 -153 q 338 -79 324 -93 q 375 -65 353 -65 q 410 -80 396 -65 q 424 -117 424 -94 q 404 -174 424 -137 l 361 -254 l 315 -254 z "},"ŗ":{"ha":418,"x_min":72,"x_max":389,"o":"m 72 -254 l 122 -161 q 81 -114 81 -153 q 95 -79 81 -93 q 132 -65 110 -65 q 167 -80 153 -65 q 181 -117 181 -94 q 161 -174 181 -137 l 118 -254 l 72 -254 m 389 621 l 389 553 q 332 564 363 564 q 233 528 276 564 q 168 431 190 492 l 168 0 l 99 0 l 99 617 l 168 617 l 168 518 q 235 598 190 567 q 335 629 279 629 q 389 621 361 629 z "},"Ř":{"ha":763,"x_min":110,"x_max":719,"o":"m 385 376 l 181 376 l 181 0 l 110 0 l 110 853 l 411 853 q 608 791 538 853 q 679 614 679 729 q 622 451 679 511 q 463 379 565 392 l 719 0 l 638 0 l 385 376 m 181 789 l 181 439 l 408 439 q 558 485 506 439 q 610 614 610 531 q 558 744 610 699 q 408 789 506 789 l 181 789 m 336 917 l 208 1082 l 274 1082 l 367 967 l 460 1082 l 525 1082 l 397 917 l 336 917 z "},"ř":{"ha":418,"x_min":85,"x_max":401,"o":"m 401 896 l 274 715 l 213 715 l 85 896 l 149 896 l 243 764 l 338 896 l 401 896 m 389 621 l 389 553 q 332 564 363 564 q 233 528 276 564 q 168 431 190 492 l 168 0 l 99 0 l 99 617 l 168 617 l 168 518 q 235 598 190 567 q 335 629 279 629 q 389 621 361 629 z "},"Ś":{"ha":690,"x_min":36,"x_max":633,"o":"m 36 208 l 110 208 q 199 92 135 132 q 351 51 263 51 q 505 97 446 51 q 564 222 564 143 q 417 381 564 339 l 254 426 q 108 501 157 453 q 58 635 58 549 q 136 803 58 740 q 328 865 214 865 q 525 808 449 865 q 628 651 601 750 l 557 651 q 328 801 504 801 q 184 758 242 801 q 126 639 126 714 q 165 543 126 575 q 289 488 203 511 l 432 446 q 585 363 536 417 q 633 225 633 310 q 554 51 633 115 q 351 -12 475 -12 q 147 46 232 -12 q 36 208 61 104 m 361 924 l 292 924 l 406 1086 l 483 1086 l 361 924 z "},"ś":{"ha":554,"x_min":42,"x_max":500,"o":"m 301 722 l 233 722 l 349 903 l 422 903 l 301 722 m 42 160 l 111 160 q 283 47 149 47 q 392 76 350 47 q 433 161 433 106 q 319 271 433 239 l 204 303 q 58 458 58 342 q 118 583 58 536 q 267 629 178 629 q 420 585 361 629 q 496 461 479 540 l 428 461 q 267 569 392 569 q 165 541 206 569 q 125 461 125 513 q 151 399 125 419 q 236 361 176 378 l 346 331 q 500 163 500 290 q 439 34 500 81 q 282 -12 378 -12 q 122 33 188 -12 q 42 160 56 79 z "},"Ŝ":{"ha":690,"x_min":36,"x_max":633,"o":"m 36 208 l 110 208 q 199 92 135 132 q 351 51 263 51 q 505 97 446 51 q 564 222 564 143 q 417 381 564 339 l 254 426 q 108 501 157 453 q 58 635 58 549 q 136 803 58 740 q 328 865 214 865 q 525 808 449 865 q 628 651 601 750 l 557 651 q 328 801 504 801 q 184 758 242 801 q 126 639 126 714 q 165 543 126 575 q 289 488 203 511 l 432 446 q 585 363 536 417 q 633 225 633 310 q 554 51 633 115 q 351 -12 475 -12 q 147 46 232 -12 q 36 208 61 104 m 367 1092 l 494 926 l 429 926 l 336 1043 l 243 926 l 178 926 l 306 1092 l 367 1092 z "},"ŝ":{"ha":554,"x_min":42,"x_max":500,"o":"m 304 894 l 432 713 l 368 713 l 274 847 l 179 713 l 115 713 l 243 894 l 304 894 m 42 160 l 111 160 q 283 47 149 47 q 392 76 350 47 q 433 161 433 106 q 319 271 433 239 l 204 303 q 58 458 58 342 q 118 583 58 536 q 267 629 178 629 q 420 585 361 629 q 496 461 479 540 l 428 461 q 267 569 392 569 q 165 541 206 569 q 125 461 125 513 q 151 399 125 419 q 236 361 176 378 l 346 331 q 500 163 500 290 q 439 34 500 81 q 282 -12 378 -12 q 122 33 188 -12 q 42 160 56 79 z "},"Ş":{"ha":690,"x_min":36,"x_max":633,"o":"m 36 208 l 110 208 q 199 92 135 132 q 351 51 263 51 q 505 97 446 51 q 564 222 564 143 q 417 381 564 339 l 254 426 q 108 501 157 453 q 58 635 58 549 q 136 803 58 740 q 328 865 214 865 q 525 808 449 865 q 628 651 601 750 l 557 651 q 328 801 504 801 q 184 758 242 801 q 126 639 126 714 q 165 543 126 575 q 289 488 203 511 l 432 446 q 585 363 536 417 q 633 225 633 310 q 554 51 633 115 q 351 -12 475 -12 q 147 46 232 -12 q 36 208 61 104 m 285 -243 l 221 -243 l 303 -67 l 369 -67 l 285 -243 z "},"ş":{"ha":554,"x_min":42,"x_max":500,"o":"m 42 160 l 111 160 q 283 47 149 47 q 392 76 350 47 q 433 161 433 106 q 319 271 433 239 l 204 303 q 58 458 58 342 q 118 583 58 536 q 267 629 178 629 q 420 585 361 629 q 496 461 479 540 l 428 461 q 267 569 392 569 q 165 541 206 569 q 125 461 125 513 q 151 399 125 419 q 236 361 176 378 l 346 331 q 500 163 500 290 q 439 34 500 81 q 282 -12 378 -12 q 122 33 188 -12 q 42 160 56 79 m 225 -243 l 161 -243 l 243 -67 l 310 -67 l 225 -243 z "},"Š":{"ha":690,"x_min":36,"x_max":633,"o":"m 306 917 l 178 1082 l 243 1082 l 336 967 l 429 1082 l 494 1082 l 367 917 l 306 917 m 36 208 l 110 208 q 199 92 135 132 q 351 51 263 51 q 505 97 446 51 q 564 222 564 143 q 417 381 564 339 l 254 426 q 108 501 157 453 q 58 635 58 549 q 136 803 58 740 q 328 865 214 865 q 525 808 449 865 q 628 651 601 750 l 557 651 q 328 801 504 801 q 184 758 242 801 q 126 639 126 714 q 165 543 126 575 q 289 488 203 511 l 432 446 q 585 363 536 417 q 633 225 633 310 q 554 51 633 115 q 351 -12 475 -12 q 147 46 232 -12 q 36 208 61 104 z "},"š":{"ha":554,"x_min":42,"x_max":500,"o":"m 432 896 l 304 715 l 243 715 l 115 896 l 179 896 l 274 764 l 368 896 l 432 896 m 42 160 l 111 160 q 283 47 149 47 q 392 76 350 47 q 433 161 433 106 q 319 271 433 239 l 204 303 q 58 458 58 342 q 118 583 58 536 q 267 629 178 629 q 420 585 361 629 q 496 461 479 540 l 428 461 q 267 569 392 569 q 165 541 206 569 q 125 461 125 513 q 151 399 125 419 q 236 361 176 378 l 346 331 q 500 163 500 290 q 439 34 500 81 q 282 -12 378 -12 q 122 33 188 -12 q 42 160 56 79 z "},"Ţ":{"ha":781,"x_min":43,"x_max":738,"o":"m 339 -254 l 389 -161 q 347 -114 347 -153 q 362 -79 347 -93 q 399 -65 376 -65 q 433 -80 419 -65 q 447 -117 447 -94 q 428 -174 447 -137 l 385 -254 l 339 -254 m 43 788 l 43 853 l 738 853 l 738 788 l 425 788 l 425 0 l 354 0 l 354 788 l 43 788 z "},"ţ":{"ha":413,"x_min":22,"x_max":368,"o":"m 126 143 l 126 557 l 22 557 l 22 617 l 126 617 l 126 775 l 194 775 l 194 617 l 354 617 l 354 557 l 194 557 l 194 150 q 283 50 194 50 q 368 74 328 50 l 368 8 q 276 -12 329 -12 q 167 27 207 -12 q 126 143 126 67 m 189 -254 l 239 -161 q 197 -114 197 -153 q 212 -79 197 -93 q 249 -65 226 -65 q 283 -80 269 -65 q 297 -117 297 -94 q 278 -174 297 -137 l 235 -254 l 189 -254 z "},"Ť":{"ha":781,"x_min":43,"x_max":738,"o":"m 360 917 l 232 1082 l 297 1082 l 390 967 l 483 1082 l 549 1082 l 421 917 l 360 917 m 43 788 l 43 853 l 738 853 l 738 788 l 425 788 l 425 0 l 354 0 l 354 788 l 43 788 z "},"ť":{"ha":413,"x_min":22,"x_max":375,"o":"m 126 143 l 126 557 l 22 557 l 22 617 l 126 617 l 126 775 l 194 775 l 194 617 l 354 617 l 354 557 l 194 557 l 194 150 q 283 50 194 50 q 368 74 328 50 l 368 8 q 276 -12 329 -12 q 167 27 207 -12 q 126 143 126 67 m 331 694 l 274 694 l 319 917 l 375 917 l 331 694 z "},"Ŧ":{"ha":781,"x_min":43,"x_max":738,"o":"m 43 788 l 43 853 l 738 853 l 738 788 l 425 788 l 425 472 l 588 472 l 588 410 l 425 410 l 425 0 l 354 0 l 354 410 l 192 410 l 192 472 l 354 472 l 354 788 l 43 788 z "},"ŧ":{"ha":415,"x_min":25,"x_max":369,"o":"m 39 335 l 39 392 l 128 392 l 128 557 l 25 557 l 25 617 l 128 617 l 128 775 l 197 775 l 197 617 l 356 617 l 356 557 l 197 557 l 197 392 l 328 392 l 328 335 l 197 335 l 197 150 q 286 50 197 50 q 369 74 329 50 l 369 8 q 279 -12 331 -12 q 168 26 208 -12 q 128 143 128 65 l 128 335 l 39 335 z "},"Ũ":{"ha":840,"x_min":93,"x_max":747,"o":"m 546 1068 l 594 1068 q 569 963 594 1001 q 499 924 544 924 q 415 968 461 924 q 346 1013 369 1013 q 296 928 296 1013 l 246 928 q 271 1033 246 994 q 342 1072 296 1072 q 426 1028 381 1072 q 494 983 471 983 q 546 1068 543 983 m 656 77 q 610 32 656 77 q 419 -12 564 -12 q 184 77 275 -12 q 93 336 93 167 l 93 853 l 164 853 l 164 346 q 234 127 164 201 q 419 53 304 53 q 606 127 535 53 q 676 346 676 201 l 676 853 l 747 853 l 747 336 q 656 77 747 167 z "},"ũ":{"ha":668,"x_min":92,"x_max":569,"o":"m 569 617 l 569 0 l 501 0 l 501 99 q 419 19 471 51 q 306 -12 368 -12 q 147 48 203 -12 q 92 208 92 108 l 92 617 l 160 617 l 160 218 q 199 97 160 143 q 318 51 239 51 q 428 89 379 51 q 501 185 478 126 l 501 617 l 569 617 m 456 868 l 504 868 q 480 762 504 801 q 410 722 456 722 q 327 767 372 722 q 260 813 282 813 q 210 726 210 813 l 161 726 q 185 833 161 793 q 256 872 210 872 q 339 827 294 872 q 406 782 383 782 q 442 806 429 782 q 456 868 456 829 z "},"Ū":{"ha":840,"x_min":93,"x_max":747,"o":"m 282 931 l 282 989 l 561 989 l 561 931 l 282 931 m 656 77 q 610 32 656 77 q 419 -12 564 -12 q 184 77 275 -12 q 93 336 93 167 l 93 853 l 164 853 l 164 346 q 234 127 164 201 q 419 53 304 53 q 606 127 535 53 q 676 346 676 201 l 676 853 l 747 853 l 747 336 q 656 77 747 167 z "},"ū":{"ha":668,"x_min":92,"x_max":569,"o":"m 569 617 l 569 0 l 501 0 l 501 99 q 419 19 471 51 q 306 -12 368 -12 q 147 48 203 -12 q 92 208 92 108 l 92 617 l 160 617 l 160 218 q 199 97 160 143 q 318 51 239 51 q 428 89 379 51 q 501 185 478 126 l 501 617 l 569 617 m 193 746 l 193 803 l 472 803 l 472 746 l 193 746 z "},"Ŭ":{"ha":840,"x_min":93,"x_max":747,"o":"m 524 965 q 504 943 524 965 q 421 922 485 922 q 317 965 357 922 q 278 1085 278 1007 l 333 1085 q 358 1004 333 1033 q 421 975 382 975 q 484 1004 460 975 q 508 1085 508 1033 l 563 1085 q 524 965 563 1007 m 656 77 q 610 32 656 77 q 419 -12 564 -12 q 184 77 275 -12 q 93 336 93 167 l 93 853 l 164 853 l 164 346 q 234 127 164 201 q 419 53 304 53 q 606 127 535 53 q 676 346 676 201 l 676 853 l 747 853 l 747 336 q 656 77 747 167 z "},"ŭ":{"ha":668,"x_min":92,"x_max":569,"o":"m 569 617 l 569 0 l 501 0 l 501 99 q 419 19 471 51 q 306 -12 368 -12 q 147 48 203 -12 q 92 208 92 108 l 92 617 l 160 617 l 160 218 q 199 97 160 143 q 318 51 239 51 q 428 89 379 51 q 501 185 478 126 l 501 617 l 569 617 m 435 747 q 415 725 435 747 q 332 703 396 703 q 229 747 268 703 q 190 869 190 790 l 246 869 q 269 785 246 815 q 332 754 293 754 q 394 785 371 754 q 418 869 418 815 l 474 869 q 435 747 474 790 z "},"Ů":{"ha":840,"x_min":93,"x_max":747,"o":"m 656 77 q 610 32 656 77 q 419 -12 564 -12 q 184 77 275 -12 q 93 336 93 167 l 93 853 l 164 853 l 164 346 q 234 127 164 201 q 419 53 304 53 q 606 127 535 53 q 676 346 676 201 l 676 853 l 747 853 l 747 336 q 656 77 747 167 m 501 1091 q 517 1075 501 1091 q 533 1011 533 1058 q 501 932 533 964 q 421 900 468 900 q 341 932 374 900 q 308 1011 308 964 q 341 1091 308 1058 q 421 1124 374 1124 q 501 1091 468 1124 m 489 1011 q 469 1060 489 1040 q 421 1081 449 1081 q 373 1060 393 1081 q 353 1011 353 1040 q 373 963 353 983 q 421 943 393 943 q 469 963 449 943 q 489 1011 489 983 z "},"ů":{"ha":668,"x_min":92,"x_max":569,"o":"m 412 885 q 428 869 412 885 q 444 806 444 853 q 412 726 444 758 q 332 693 379 693 q 252 726 285 693 q 219 806 219 758 q 252 885 219 853 q 332 918 285 918 q 412 885 379 918 m 380 757 q 390 767 380 757 q 400 806 400 776 q 380 854 400 835 q 332 874 360 874 q 284 854 304 874 q 264 806 264 835 q 284 757 264 776 q 332 738 304 738 q 380 757 360 738 m 569 617 l 569 0 l 501 0 l 501 99 q 419 19 471 51 q 306 -12 368 -12 q 147 48 203 -12 q 92 208 92 108 l 92 617 l 160 617 l 160 218 q 199 97 160 143 q 318 51 239 51 q 428 89 379 51 q 501 185 478 126 l 501 617 l 569 617 z "},"Ű":{"ha":840,"x_min":93,"x_max":747,"o":"m 656 77 q 610 32 656 77 q 419 -12 564 -12 q 184 77 275 -12 q 93 336 93 167 l 93 853 l 164 853 l 164 346 q 234 127 164 201 q 419 53 304 53 q 606 127 535 53 q 676 346 676 201 l 676 853 l 747 853 l 747 336 q 656 77 747 167 m 378 924 l 315 924 l 418 1086 l 482 1086 l 378 924 m 533 924 l 469 924 l 572 1086 l 636 1086 l 533 924 z "},"ű":{"ha":668,"x_min":92,"x_max":569,"o":"m 569 617 l 569 0 l 501 0 l 501 99 q 419 19 471 51 q 306 -12 368 -12 q 147 48 203 -12 q 92 208 92 108 l 92 617 l 160 617 l 160 218 q 199 97 160 143 q 318 51 239 51 q 428 89 379 51 q 501 185 478 126 l 501 617 l 569 617 m 283 722 l 221 722 l 324 903 l 386 903 l 283 722 m 436 722 l 374 722 l 476 903 l 539 903 l 436 722 z "},"Ų":{"ha":840,"x_min":93,"x_max":747,"o":"m 419 -12 q 184 77 275 -12 q 93 336 93 167 l 93 853 l 164 853 l 164 346 q 234 127 164 201 q 419 53 304 53 q 606 127 535 53 q 676 346 676 201 l 676 853 l 747 853 l 747 336 q 594 29 747 138 q 469 -160 469 -61 q 503 -201 469 -201 q 554 -182 526 -201 l 554 -232 q 493 -253 524 -253 q 435 -231 457 -253 q 413 -168 413 -208 q 497 -3 413 -82 q 419 -12 458 -12 z "},"ų":{"ha":668,"x_min":92,"x_max":586,"o":"m 569 617 l 569 0 q 513 -105 526 -74 q 500 -162 500 -136 q 535 -201 500 -201 q 586 -182 558 -201 l 586 -232 q 524 -253 556 -253 q 466 -231 488 -253 q 444 -169 444 -210 q 514 0 444 -121 l 501 0 l 501 99 q 419 19 471 51 q 306 -12 368 -12 q 147 48 203 -12 q 92 208 92 108 l 92 617 l 160 617 l 160 218 q 199 97 160 143 q 318 51 239 51 q 428 89 379 51 q 501 185 478 126 l 501 617 l 569 617 z "},"Ŵ":{"ha":1054,"x_min":31,"x_max":1024,"o":"m 499 853 l 557 853 l 757 119 l 954 853 l 1024 853 l 792 0 l 728 0 l 526 726 l 326 0 l 264 0 l 31 853 l 101 853 l 299 119 l 499 853 m 557 1092 l 685 926 l 619 926 l 526 1043 l 433 926 l 368 926 l 496 1092 l 557 1092 z "},"ŵ":{"ha":839,"x_min":25,"x_max":814,"o":"m 450 894 l 578 713 l 514 713 l 419 847 l 325 713 l 261 713 l 389 894 l 450 894 m 449 617 l 596 108 l 747 617 l 814 617 l 628 0 l 568 0 l 419 510 l 271 0 l 211 0 l 25 617 l 93 617 l 244 108 l 392 617 l 449 617 z "},"Ŷ":{"ha":743,"x_min":26,"x_max":718,"o":"m 374 429 l 642 853 l 718 853 l 407 364 l 407 0 l 336 0 l 336 364 l 26 853 l 104 853 l 374 429 m 401 1092 l 529 926 l 464 926 l 371 1043 l 278 926 l 213 926 l 340 1092 l 401 1092 z "},"ŷ":{"ha":600,"x_min":25,"x_max":575,"o":"m 236 -236 l 167 -236 l 267 8 l 25 617 l 99 617 l 301 94 l 504 617 l 575 617 l 236 -236 m 331 894 l 458 713 l 394 713 l 300 847 l 206 713 l 142 713 l 269 894 l 331 894 z "},"Ÿ":{"ha":743,"x_min":26,"x_max":718,"o":"m 374 429 l 642 853 l 718 853 l 407 364 l 407 0 l 336 0 l 336 364 l 26 853 l 104 853 l 374 429 m 253 960 q 247 967 253 960 q 240 993 240 974 q 253 1026 240 1013 q 286 1039 267 1039 q 318 1026 306 1039 q 331 993 331 1013 q 317 960 331 974 q 286 947 304 947 q 253 960 267 947 m 427 960 q 420 967 427 960 q 414 993 414 974 q 426 1026 414 1013 q 458 1039 439 1039 q 491 1026 478 1039 q 504 993 504 1013 q 491 961 504 975 q 458 947 478 947 q 427 960 440 947 z "},"Ź":{"ha":721,"x_min":51,"x_max":665,"o":"m 665 65 l 665 0 l 51 0 l 51 54 l 572 788 l 58 788 l 58 853 l 660 853 l 660 799 l 140 65 l 665 65 m 414 924 l 344 924 l 458 1086 l 536 1086 l 414 924 z "},"ź":{"ha":578,"x_min":54,"x_max":521,"o":"m 324 722 l 256 722 l 371 903 l 444 903 l 324 722 m 521 60 l 521 0 l 54 0 l 54 49 l 431 557 l 61 557 l 61 617 l 517 617 l 517 568 l 142 60 l 521 60 z "},"Ż":{"ha":721,"x_min":51,"x_max":665,"o":"m 419 1025 q 426 1018 419 1025 q 433 992 433 1011 q 419 958 433 972 q 386 944 406 944 q 353 958 367 944 q 339 992 339 972 q 353 1025 339 1011 q 386 1039 367 1039 q 419 1025 406 1039 m 665 65 l 665 0 l 51 0 l 51 54 l 572 788 l 58 788 l 58 853 l 660 853 l 660 799 l 140 65 l 665 65 z "},"ż":{"ha":578,"x_min":54,"x_max":521,"o":"m 521 60 l 521 0 l 54 0 l 54 49 l 431 557 l 61 557 l 61 617 l 517 617 l 517 568 l 142 60 l 521 60 m 329 838 q 336 831 329 838 q 343 804 343 824 q 329 771 343 785 q 296 757 315 757 q 263 771 276 757 q 249 804 249 785 q 263 838 249 824 q 296 851 276 851 q 329 838 315 851 z "},"Ž":{"ha":721,"x_min":51,"x_max":665,"o":"m 356 917 l 228 1082 l 293 1082 l 386 967 l 479 1082 l 544 1082 l 417 917 l 356 917 m 665 65 l 665 0 l 51 0 l 51 54 l 572 788 l 58 788 l 58 853 l 660 853 l 660 799 l 140 65 l 665 65 z "},"ž":{"ha":578,"x_min":54,"x_max":521,"o":"m 454 896 l 326 715 l 265 715 l 138 896 l 201 896 l 296 764 l 390 896 l 454 896 m 521 60 l 521 0 l 54 0 l 54 49 l 431 557 l 61 557 l 61 617 l 517 617 l 517 568 l 142 60 l 521 60 z "},"ƒ":{"ha":533,"x_min":-74,"x_max":510,"o":"m 92 410 l 92 468 l 201 468 l 239 678 q 303 815 254 764 q 428 865 351 865 q 510 849 469 865 l 510 785 q 428 804 471 804 q 307 671 332 804 l 271 468 l 414 468 l 414 410 l 260 410 l 176 -62 q 7 -240 146 -240 q -74 -224 -39 -240 l -74 -160 q 6 -179 -35 -179 q 76 -148 53 -179 q 110 -56 99 -117 l 192 410 l 92 410 z "},"Ǻ":{"ha":804,"x_min":32,"x_max":772,"o":"m 369 853 l 435 853 l 772 0 l 701 0 l 590 281 l 213 281 l 103 0 l 32 0 l 369 853 m 401 761 l 238 344 l 565 344 l 401 761 m 518 988 q 484 919 518 947 q 401 890 450 890 q 319 919 353 890 q 285 988 285 947 q 319 1058 285 1029 q 401 1088 353 1088 q 484 1059 450 1088 q 518 988 518 1031 m 472 988 q 452 1030 472 1014 q 401 1046 432 1046 q 351 1029 372 1046 q 331 988 331 1013 q 351 948 331 964 q 401 932 372 932 q 452 948 432 932 q 472 988 472 964 m 438 1125 l 371 1125 l 451 1240 l 525 1240 l 438 1125 z "},"ǻ":{"ha":610,"x_min":53,"x_max":518,"o":"m 422 764 q 388 695 422 724 q 304 667 353 667 q 222 695 256 667 q 189 764 189 724 q 222 834 189 806 q 304 863 256 863 q 388 834 353 863 q 422 764 422 806 m 356 723 q 366 731 356 723 q 376 764 376 739 q 356 805 376 789 q 304 821 335 821 q 255 805 275 821 q 235 764 235 789 q 255 723 235 739 q 304 707 275 707 q 356 723 335 707 m 340 900 l 274 900 l 354 1017 l 428 1017 l 340 900 m 518 0 l 451 0 l 451 58 q 382 11 429 32 q 281 -10 335 -10 q 118 42 183 -10 q 53 181 53 94 q 119 317 53 264 q 283 369 186 369 q 381 349 333 369 q 451 304 428 329 l 451 414 q 410 526 451 483 q 297 568 369 568 q 147 463 182 568 l 79 463 q 156 585 97 540 q 297 629 215 629 q 459 572 400 629 q 518 417 518 514 l 518 0 m 451 140 l 451 219 q 390 285 436 260 q 288 311 343 311 q 167 277 217 311 q 118 181 118 243 q 167 83 118 118 q 288 49 217 49 q 390 74 343 49 q 451 140 436 100 z "},"Ǽ":{"ha":1192,"x_min":32,"x_max":1114,"o":"m 563 853 l 1114 853 l 1114 788 l 672 788 l 672 472 l 1071 472 l 1071 407 l 672 407 l 672 65 l 1114 65 l 1114 0 l 603 0 l 603 281 l 282 281 l 107 0 l 32 0 l 563 853 m 603 790 l 322 344 l 603 344 l 603 790 m 860 924 l 790 924 l 904 1086 l 982 1086 l 860 924 z "},"ǽ":{"ha":1015,"x_min":47,"x_max":964,"o":"m 556 722 l 488 722 l 603 903 l 676 903 l 556 722 m 261 49 q 379 89 331 49 q 447 192 428 129 l 447 301 l 282 301 q 163 269 211 301 q 114 175 114 236 q 156 81 114 114 q 261 49 197 49 m 886 179 l 953 179 q 872 40 935 92 q 714 -12 810 -12 q 483 132 558 -12 q 258 -10 406 -10 q 107 40 167 -10 q 47 172 47 90 q 114 308 47 257 q 279 358 181 358 l 447 358 l 447 414 q 406 526 447 483 q 293 568 365 568 q 142 463 176 568 l 75 463 q 152 585 93 540 q 293 629 211 629 q 424 592 371 629 q 494 492 476 556 q 713 629 571 629 q 899 547 833 629 q 964 328 964 464 l 964 303 l 510 303 q 567 117 511 185 q 714 49 624 49 q 826 83 781 49 q 886 179 871 118 m 713 568 q 575 511 629 568 q 511 357 521 454 l 893 357 q 845 507 890 446 q 713 568 800 568 z "},"Ǿ":{"ha":875,"x_min":61,"x_max":815,"o":"m 69 10 l 158 119 q 61 426 61 242 q 167 743 61 621 q 438 865 274 865 q 683 769 583 865 l 756 858 l 800 825 l 721 728 q 815 426 815 607 q 709 110 815 232 q 438 -12 603 -12 q 197 79 297 -12 l 114 -24 l 69 10 m 133 426 q 203 175 133 275 l 640 717 q 438 799 558 799 q 218 695 303 799 q 133 426 133 592 m 743 426 q 676 672 743 574 l 239 132 q 438 54 319 54 q 658 158 574 54 q 743 426 743 261 m 465 924 l 396 924 l 510 1086 l 588 1086 l 465 924 z "},"ǿ":{"ha":668,"x_min":61,"x_max":607,"o":"m 61 -1 l 129 85 q 61 308 61 169 q 136 540 61 451 q 333 629 211 629 q 504 567 433 629 l 563 642 l 603 613 l 539 531 q 607 308 607 443 q 531 76 607 165 q 333 -12 456 -12 q 163 49 235 -12 l 101 -31 l 61 -1 m 129 308 q 171 139 129 203 l 465 517 q 333 568 411 568 q 185 497 242 568 q 129 308 129 425 m 539 308 q 497 476 539 408 l 203 100 q 333 49 254 49 q 483 120 426 49 q 539 308 539 192 m 360 722 l 292 722 l 407 903 l 481 903 l 360 722 z "},"Ș":{"ha":690,"x_min":36,"x_max":633,"o":"m 282 -254 l 332 -161 q 290 -114 290 -153 q 305 -79 290 -93 q 342 -65 319 -65 q 376 -80 363 -65 q 390 -117 390 -94 q 371 -174 390 -137 l 328 -254 l 282 -254 m 36 208 l 110 208 q 199 92 135 132 q 351 51 263 51 q 505 97 446 51 q 564 222 564 143 q 417 381 564 339 l 254 426 q 108 501 157 453 q 58 635 58 549 q 136 803 58 740 q 328 865 214 865 q 525 808 449 865 q 628 651 601 750 l 557 651 q 328 801 504 801 q 184 758 242 801 q 126 639 126 714 q 165 543 126 575 q 289 488 203 511 l 432 446 q 585 363 536 417 q 633 225 633 310 q 554 51 633 115 q 351 -12 475 -12 q 147 46 232 -12 q 36 208 61 104 z "},"ș":{"ha":554,"x_min":42,"x_max":500,"o":"m 222 -254 l 272 -161 q 231 -114 231 -153 q 245 -79 231 -93 q 282 -65 260 -65 q 317 -80 303 -65 q 331 -117 331 -94 q 311 -174 331 -137 l 268 -254 l 222 -254 m 42 160 l 111 160 q 283 47 149 47 q 392 76 350 47 q 433 161 433 106 q 319 271 433 239 l 204 303 q 58 458 58 342 q 118 583 58 536 q 267 629 178 629 q 420 585 361 629 q 496 461 479 540 l 428 461 q 267 569 392 569 q 165 541 206 569 q 125 461 125 513 q 151 399 125 419 q 236 361 176 378 l 346 331 q 500 163 500 290 q 439 34 500 81 q 282 -12 378 -12 q 122 33 188 -12 q 42 160 56 79 z "},"ȷ":{"ha":267,"x_min":-19,"x_max":168,"o":"m 168 617 l 168 -89 q 127 -208 168 -167 q 13 -249 86 -249 q -19 -244 -10 -249 l -19 -183 q 8 -187 -8 -187 q 76 -165 54 -187 q 99 -82 99 -142 l 99 617 l 168 617 z "},"ˆ":{"ha":694,"x_min":189,"x_max":506,"o":"m 378 894 l 506 713 l 442 713 l 347 847 l 253 713 l 189 713 l 317 894 l 378 894 z "},"ˇ":{"ha":694,"x_min":189,"x_max":506,"o":"m 506 896 l 378 715 l 317 715 l 189 896 l 253 896 l 347 764 l 442 896 l 506 896 z "},"˘":{"ha":694,"x_min":206,"x_max":489,"o":"m 450 747 q 431 725 450 747 q 347 703 411 703 q 244 747 283 703 q 206 869 206 790 l 261 869 q 285 785 261 815 q 347 754 308 754 q 410 785 386 754 q 433 869 433 815 l 489 869 q 450 747 489 790 z "},"˙":{"ha":694,"x_min":300,"x_max":394,"o":"m 381 838 q 388 831 381 838 q 394 804 394 824 q 381 771 394 785 q 347 757 367 757 q 314 771 328 757 q 300 804 300 785 q 314 838 300 824 q 347 851 328 851 q 381 838 367 851 z "},"˚":{"ha":694,"x_min":235,"x_max":460,"o":"m 427 885 q 443 869 427 885 q 460 806 460 853 q 427 726 460 758 q 347 693 394 693 q 267 726 300 693 q 235 806 235 758 q 267 885 235 853 q 347 918 300 918 q 427 885 394 918 m 395 757 q 405 767 395 757 q 415 806 415 776 q 395 854 415 835 q 347 874 375 874 q 299 854 319 874 q 279 806 279 835 q 299 757 279 776 q 347 738 319 738 q 395 757 375 738 z "},"˛":{"ha":694,"x_min":293,"x_max":435,"o":"m 365 6 l 421 6 q 363 -104 376 -72 q 349 -162 349 -136 q 383 -201 349 -201 q 435 -182 407 -201 l 435 -232 q 372 -253 404 -253 q 315 -231 336 -253 q 293 -169 293 -210 q 308 -105 293 -139 q 365 6 324 -71 z "},"˜":{"ha":694,"x_min":175,"x_max":518,"o":"m 469 868 l 518 868 q 494 762 518 801 q 424 722 469 722 q 341 767 386 722 q 274 813 296 813 q 224 726 224 813 l 175 726 q 199 833 175 793 q 269 872 224 872 q 353 827 308 872 q 419 782 397 782 q 456 806 443 782 q 469 868 469 829 z "},"˝":{"ha":694,"x_min":188,"x_max":506,"o":"m 250 722 l 188 722 l 290 903 l 353 903 l 250 722 m 403 722 l 340 722 l 443 903 l 506 903 l 403 722 z "},"Ẁ":{"ha":1054,"x_min":31,"x_max":1024,"o":"m 563 924 l 492 924 l 371 1086 l 447 1086 l 563 924 m 499 853 l 557 853 l 757 119 l 954 853 l 1024 853 l 792 0 l 728 0 l 526 726 l 326 0 l 264 0 l 31 853 l 101 853 l 299 119 l 499 853 z "},"ẁ":{"ha":839,"x_min":25,"x_max":814,"o":"m 449 617 l 596 108 l 747 617 l 814 617 l 628 0 l 568 0 l 419 510 l 271 0 l 211 0 l 25 617 l 93 617 l 244 108 l 392 617 l 449 617 m 457 722 l 389 722 l 268 903 l 342 903 l 457 722 z "},"Ẃ":{"ha":1054,"x_min":31,"x_max":1024,"o":"m 557 924 l 488 924 l 601 1086 l 679 1086 l 557 924 m 499 853 l 557 853 l 757 119 l 954 853 l 1024 853 l 792 0 l 728 0 l 526 726 l 326 0 l 264 0 l 31 853 l 101 853 l 299 119 l 499 853 z "},"ẃ":{"ha":839,"x_min":25,"x_max":814,"o":"m 447 722 l 379 722 l 494 903 l 568 903 l 447 722 m 449 617 l 596 108 l 747 617 l 814 617 l 628 0 l 568 0 l 419 510 l 271 0 l 211 0 l 25 617 l 93 617 l 244 108 l 392 617 l 449 617 z "},"Ẅ":{"ha":1054,"x_min":31,"x_max":1024,"o":"m 408 960 q 401 967 408 960 q 394 993 394 974 q 408 1026 394 1013 q 440 1039 421 1039 q 472 1026 460 1039 q 485 993 485 1013 q 472 960 485 974 q 440 947 458 947 q 408 960 421 947 m 581 960 q 575 967 581 960 q 568 993 568 974 q 581 1026 568 1013 q 613 1039 593 1039 q 645 1026 632 1039 q 658 993 658 1013 q 644 961 658 975 q 613 947 631 947 q 581 960 594 947 m 499 853 l 557 853 l 757 119 l 954 853 l 1024 853 l 792 0 l 728 0 l 526 726 l 326 0 l 264 0 l 31 853 l 101 853 l 299 119 l 499 853 z "},"ẅ":{"ha":839,"x_min":25,"x_max":814,"o":"m 301 760 q 294 767 301 760 q 288 793 288 774 q 301 825 288 813 q 333 838 314 838 q 365 824 353 838 q 378 793 378 811 q 365 760 378 774 q 333 747 353 747 q 301 760 314 747 m 461 793 q 474 824 461 811 q 506 838 486 838 q 538 824 525 838 q 551 793 551 811 q 538 760 551 774 q 506 747 525 747 q 474 760 486 747 q 461 793 461 774 m 449 617 l 596 108 l 747 617 l 814 617 l 628 0 l 568 0 l 419 510 l 271 0 l 211 0 l 25 617 l 93 617 l 244 108 l 392 617 l 449 617 z "},"Ỳ":{"ha":743,"x_min":26,"x_max":718,"o":"m 374 429 l 642 853 l 718 853 l 407 364 l 407 0 l 336 0 l 336 364 l 26 853 l 104 853 l 374 429 m 408 924 l 338 924 l 217 1086 l 293 1086 l 408 924 z "},"ỳ":{"ha":600,"x_min":25,"x_max":575,"o":"m 236 -236 l 167 -236 l 267 8 l 25 617 l 99 617 l 301 94 l 504 617 l 575 617 l 236 -236 m 338 722 l 269 722 l 149 903 l 222 903 l 338 722 z "},"–":{"ha":660,"x_min":56,"x_max":604,"o":"m 56 332 l 56 389 l 604 389 l 604 332 l 56 332 z "},"—":{"ha":1175,"x_min":56,"x_max":1119,"o":"m 56 332 l 56 389 l 1119 389 l 1119 332 l 56 332 z "},"‘":{"ha":196,"x_min":35,"x_max":168,"o":"m 168 853 l 96 718 q 139 668 139 711 q 124 631 139 646 q 88 615 110 615 q 49 631 64 615 q 35 671 35 646 q 54 732 35 697 l 119 853 l 168 853 z "},"’":{"ha":196,"x_min":28,"x_max":161,"o":"m 28 628 l 100 763 q 57 813 57 769 q 72 850 57 835 q 108 865 86 865 q 147 850 132 865 q 161 810 161 835 q 142 749 161 783 l 76 628 l 28 628 z "},"‚":{"ha":175,"x_min":28,"x_max":161,"o":"m 28 -136 l 100 -1 q 57 49 57 6 q 72 86 57 71 q 108 101 86 101 q 147 86 132 101 q 161 46 161 71 q 142 -15 161 19 l 76 -136 l 28 -136 z "},"“":{"ha":367,"x_min":35,"x_max":339,"o":"m 168 853 l 96 718 q 139 668 139 711 q 124 631 139 646 q 88 615 110 615 q 49 631 64 615 q 35 671 35 646 q 54 732 35 697 l 119 853 l 168 853 m 339 853 l 267 718 q 310 668 310 711 q 295 631 310 646 q 258 615 281 615 q 220 631 235 615 q 206 671 206 646 q 225 732 206 697 l 290 853 l 339 853 z "},"”":{"ha":367,"x_min":28,"x_max":332,"o":"m 28 628 l 100 763 q 57 813 57 769 q 72 850 57 835 q 108 865 86 865 q 147 850 132 865 q 161 810 161 835 q 142 749 161 783 l 76 628 l 28 628 m 199 628 l 271 763 q 228 813 228 769 q 242 850 228 835 q 279 865 257 865 q 317 850 303 865 q 332 810 332 835 q 313 749 332 783 l 247 628 l 199 628 z "},"„":{"ha":367,"x_min":28,"x_max":332,"o":"m 28 -136 l 100 -1 q 57 49 57 6 q 72 86 57 71 q 108 101 86 101 q 147 86 132 101 q 161 46 161 71 q 142 -15 161 19 l 76 -136 l 28 -136 m 199 -136 l 271 -1 q 228 49 228 6 q 242 86 228 71 q 279 101 257 101 q 317 86 303 101 q 332 46 332 71 q 313 -15 332 19 l 247 -136 l 199 -136 z "},"†":{"ha":417,"x_min":43,"x_max":374,"o":"m 43 721 l 43 775 l 181 775 l 181 903 l 236 903 l 236 775 l 374 775 l 374 721 l 236 721 l 236 438 l 181 438 l 181 721 l 43 721 z "},"‡":{"ha":422,"x_min":44,"x_max":378,"o":"m 44 725 l 44 778 l 182 778 l 182 903 l 239 903 l 239 778 l 378 778 l 378 725 l 239 725 l 239 615 l 378 615 l 378 563 l 239 563 l 239 438 l 182 438 l 182 563 l 44 563 l 44 615 l 182 615 l 182 725 l 44 725 z "},"•":{"ha":461,"x_min":53,"x_max":410,"o":"m 358 489 q 384 464 358 489 q 410 361 410 439 q 358 233 410 283 q 231 183 307 183 q 104 233 156 183 q 53 361 53 283 q 104 489 53 439 q 231 539 156 539 q 358 489 307 539 z "},"…":{"ha":642,"x_min":46,"x_max":596,"o":"m 61 11 q 53 19 61 11 q 46 49 46 26 q 61 87 46 71 q 97 103 76 103 q 135 87 119 103 q 150 49 150 71 q 135 11 150 26 q 97 -4 119 -4 q 61 11 76 -4 m 283 11 q 276 19 283 11 q 268 49 268 26 q 283 87 268 71 q 321 103 299 103 q 357 87 342 103 q 372 49 372 71 q 357 11 372 26 q 321 -4 342 -4 q 283 11 299 -4 m 507 11 q 499 19 507 11 q 492 49 492 26 q 507 87 492 71 q 543 103 522 103 q 581 87 565 103 q 596 49 596 71 q 581 11 596 26 q 543 -4 565 -4 q 507 11 522 -4 z "},"‰":{"ha":1260,"x_min":51,"x_max":1208,"o":"m 125 0 l 678 853 l 738 853 l 185 0 l 125 0 m 103 563 q 77 589 103 563 q 51 688 51 614 q 103 813 51 761 q 228 865 154 865 q 353 813 301 865 q 404 688 404 761 q 353 564 404 615 q 228 513 301 513 q 103 563 154 513 m 759 290 q 784 264 759 290 q 810 165 810 239 q 758 40 810 92 q 635 -12 707 -12 q 510 40 561 -12 q 458 165 458 92 q 510 289 458 238 q 635 340 561 340 q 759 290 708 340 m 753 165 q 718 249 753 214 q 635 283 683 283 q 550 249 585 283 q 515 165 515 214 q 550 80 515 115 q 635 44 585 44 q 718 80 683 44 q 753 165 753 115 m 1157 290 q 1183 264 1157 290 q 1208 165 1208 239 q 1157 40 1208 92 q 1033 -12 1106 -12 q 908 40 960 -12 q 856 165 856 92 q 908 289 856 238 q 1033 340 960 340 q 1157 290 1106 340 m 1151 165 q 1117 249 1151 214 q 1033 283 1082 283 q 948 249 983 283 q 913 165 913 214 q 948 80 913 115 q 1033 44 983 44 q 1117 80 1082 44 q 1151 165 1151 115 m 108 688 q 143 604 108 639 q 228 569 178 569 q 313 604 278 569 q 347 688 347 639 q 313 773 347 738 q 228 808 278 808 q 143 773 178 808 q 108 688 108 738 z "},"‹":{"ha":267,"x_min":35,"x_max":232,"o":"m 232 119 l 163 119 l 35 308 l 163 497 l 232 497 l 104 308 l 232 119 z "},"›":{"ha":267,"x_min":35,"x_max":232,"o":"m 104 119 l 35 119 l 163 308 l 35 497 l 104 497 l 232 308 l 104 119 z "},"⁄":{"ha":283,"x_min":-167,"x_max":450,"o":"m 450 853 l -103 0 l -167 0 l 386 853 l 450 853 z "},"€":{"ha":749,"x_min":40,"x_max":706,"o":"m 40 476 l 40 533 l 125 533 q 235 776 149 688 q 442 865 321 865 q 612 803 542 865 q 706 633 682 740 l 639 633 q 566 757 617 713 q 442 801 515 801 q 282 730 347 801 q 197 533 217 658 l 504 533 l 492 476 l 190 476 q 189 426 189 460 q 190 369 189 388 l 475 369 l 463 313 l 199 313 q 284 121 219 190 q 442 51 349 51 q 566 96 515 51 q 639 219 617 140 l 706 219 q 612 50 682 113 q 442 -12 542 -12 q 237 74 322 -12 q 126 313 151 161 l 40 313 l 40 369 l 119 369 q 118 426 118 388 q 119 476 118 460 l 40 476 z "},"℗":{"ha":983,"x_min":54,"x_max":931,"o":"m 803 740 q 867 678 803 740 q 931 426 931 615 q 803 113 931 238 q 492 -12 675 -12 q 182 113 310 -12 q 54 426 54 238 q 182 740 54 615 q 492 865 310 865 q 803 740 675 865 m 772 144 q 829 201 772 144 q 886 426 886 257 q 772 708 886 596 q 492 821 657 821 q 212 708 326 821 q 97 426 97 596 q 212 144 97 257 q 492 32 326 32 q 772 144 657 32 m 539 375 l 408 375 l 408 172 l 343 172 l 343 685 l 539 685 q 663 645 618 685 q 708 531 708 606 q 663 415 708 456 q 539 375 618 375 m 644 531 q 617 601 644 575 q 538 626 590 626 l 408 626 l 408 435 l 538 435 q 644 531 644 435 z "},"™":{"ha":797,"x_min":22,"x_max":732,"o":"m 22 807 l 22 853 l 315 853 l 315 807 l 196 807 l 196 500 l 142 500 l 142 807 l 22 807 m 574 500 l 535 500 l 429 761 l 429 500 l 378 500 l 378 853 l 442 853 l 556 572 l 668 853 l 732 853 l 732 500 l 679 500 l 679 761 l 574 500 z "},"⅓":{"ha":919,"x_min":65,"x_max":843,"o":"m 749 853 l 169 0 l 107 0 l 686 853 l 749 853 m 658 210 l 658 258 l 692 258 q 752 279 728 258 q 776 336 776 300 q 753 391 776 369 q 692 413 729 413 q 633 390 657 413 q 603 332 608 368 l 543 332 q 591 428 551 392 q 690 465 631 465 q 795 430 757 465 q 833 338 833 394 q 813 272 833 300 q 760 235 792 243 q 820 197 797 225 q 843 129 843 169 q 803 32 843 71 q 693 -7 763 -7 q 584 30 626 -7 q 535 131 542 67 l 597 131 q 694 46 611 46 q 759 69 735 46 q 783 129 783 92 q 758 188 783 167 q 693 210 732 210 l 658 210 m 246 854 l 246 396 l 185 396 l 185 783 l 65 722 l 65 785 l 207 854 l 246 854 z "},"⅔":{"ha":993,"x_min":68,"x_max":917,"o":"m 824 853 l 244 0 l 181 0 l 760 853 l 824 853 m 300 729 q 278 785 300 764 q 219 806 256 806 q 157 781 181 806 q 131 714 133 756 l 68 714 q 115 820 75 779 q 219 861 156 861 q 322 825 283 861 q 360 729 360 789 q 344 672 360 701 q 316 628 328 642 q 269 576 304 614 l 150 449 l 364 449 l 364 396 l 68 396 l 68 436 l 224 606 q 265 651 251 636 q 289 688 278 667 q 300 729 300 710 m 733 210 l 733 258 l 767 258 q 826 279 803 258 q 850 336 850 300 q 827 391 850 369 q 767 413 804 413 q 708 390 732 413 q 676 332 683 368 l 617 332 q 665 428 625 392 q 765 465 706 465 q 869 430 831 465 q 908 338 908 394 q 888 272 908 300 q 835 235 867 243 q 894 197 871 225 q 917 129 917 169 q 877 31 917 69 q 768 -7 838 -7 q 658 30 700 -7 q 610 131 617 67 l 672 131 q 768 46 686 46 q 833 69 808 46 q 858 129 858 92 q 833 188 858 167 q 768 210 807 210 l 733 210 z "},"⅛":{"ha":917,"x_min":65,"x_max":844,"o":"m 749 853 l 169 0 l 107 0 l 686 853 l 749 853 m 686 43 q 758 68 729 43 q 786 129 786 93 q 758 192 786 167 q 686 217 729 217 q 614 192 642 217 q 586 129 586 167 q 614 67 586 92 q 686 43 642 43 m 686 267 q 747 288 722 267 q 771 342 771 310 q 747 395 771 374 q 686 417 722 417 q 624 395 649 417 q 600 342 600 374 q 624 288 600 310 q 686 267 649 267 m 799 31 q 777 12 799 31 q 686 -7 754 -7 q 572 31 618 -7 q 526 126 526 68 q 551 199 526 168 q 615 240 576 229 q 544 343 544 268 q 585 431 544 397 q 686 465 625 465 q 788 431 747 465 q 828 343 828 397 q 808 281 828 308 q 756 240 789 253 q 819 199 794 229 q 844 126 844 168 q 799 31 844 68 m 246 854 l 246 396 l 185 396 l 185 783 l 65 722 l 65 785 l 207 854 l 246 854 z "},"⅜":{"ha":974,"x_min":65,"x_max":901,"o":"m 743 43 q 815 68 786 43 q 843 129 843 93 q 815 192 843 167 q 743 217 786 217 q 671 192 699 217 q 643 129 643 167 q 671 67 643 92 q 743 43 699 43 m 743 267 q 803 288 779 267 q 828 342 828 310 q 803 395 828 374 q 743 417 779 417 q 681 395 706 417 q 657 342 657 374 q 681 288 657 310 q 743 267 706 267 m 743 -7 q 628 31 674 -7 q 583 126 583 68 q 608 199 583 168 q 672 240 633 229 q 619 281 639 253 q 600 343 600 308 q 641 431 600 397 q 743 465 682 465 q 843 431 803 465 q 883 343 883 397 q 813 240 883 268 q 876 199 851 229 q 901 126 901 168 q 856 31 901 68 q 743 -7 811 -7 m 806 853 l 226 0 l 163 0 l 742 853 l 806 853 m 189 606 l 189 654 l 222 654 q 283 675 258 654 q 307 732 307 696 q 283 785 307 764 q 222 807 260 807 q 164 785 188 807 q 133 728 140 764 l 74 728 q 122 824 82 786 q 222 861 163 861 q 326 826 288 861 q 365 733 365 790 q 344 668 365 697 q 290 631 322 639 q 351 592 328 621 q 374 525 374 564 q 333 428 374 467 q 224 389 293 389 q 115 426 157 389 q 65 525 72 463 l 128 525 q 225 442 142 442 q 290 464 265 442 q 314 525 314 486 q 288 583 314 561 q 224 606 263 606 l 189 606 z "},"⅝":{"ha":976,"x_min":68,"x_max":903,"o":"m 674 67 q 688 55 674 67 q 744 43 701 43 q 816 68 788 43 q 844 129 844 93 q 816 192 844 167 q 744 217 788 217 q 674 192 701 217 q 646 129 646 167 q 674 67 646 92 m 684 288 q 696 277 684 288 q 744 267 708 267 q 805 288 781 267 q 829 342 829 310 q 805 395 829 374 q 744 417 781 417 q 684 395 708 417 q 660 342 660 374 q 684 288 660 310 m 858 31 q 835 12 858 31 q 744 -7 813 -7 q 631 31 676 -7 q 586 126 586 68 q 610 199 586 168 q 674 240 635 229 q 622 281 642 253 q 603 343 603 308 q 643 431 603 397 q 744 465 683 465 q 846 431 806 465 q 886 343 886 397 q 867 281 886 308 q 815 240 847 253 q 878 199 854 229 q 903 126 903 168 q 858 31 903 68 m 808 853 l 228 0 l 165 0 l 744 853 l 808 853 m 229 639 q 150 600 181 639 l 99 600 l 99 854 l 353 854 l 353 800 l 150 800 l 150 661 q 233 690 182 690 q 338 648 297 690 q 379 540 379 606 q 338 431 379 474 q 229 389 296 389 q 120 425 163 389 q 68 525 78 461 l 131 525 q 229 442 146 442 q 294 470 268 442 q 321 540 321 499 q 295 610 321 582 q 229 639 269 639 z "},"⅞":{"ha":890,"x_min":64,"x_max":818,"o":"m 588 68 q 602 56 588 68 q 660 43 617 43 q 731 68 703 43 q 760 129 760 93 q 731 192 760 167 q 660 217 703 217 q 588 192 617 217 q 560 129 560 167 q 588 68 560 93 m 660 267 q 720 288 696 267 q 744 342 744 310 q 720 395 744 374 q 660 417 696 417 q 598 395 622 417 q 574 342 574 374 q 598 288 574 310 q 660 267 622 267 m 773 31 q 750 12 773 31 q 660 -7 728 -7 q 546 31 592 -7 q 500 126 500 68 q 525 199 500 168 q 589 240 550 229 q 518 343 518 268 q 558 431 518 397 q 660 465 599 465 q 761 431 721 465 q 801 343 801 397 q 782 281 801 308 q 729 240 763 253 q 793 199 768 229 q 818 126 818 168 q 773 31 818 68 m 724 853 l 143 0 l 81 0 l 660 853 l 724 853 m 363 807 l 201 394 l 140 394 l 299 799 l 64 799 l 64 853 l 363 853 l 363 807 z "},"−":{"ha":714,"x_min":99,"x_max":615,"o":"m 99 379 l 99 439 l 615 439 l 615 379 l 99 379 z "},"≈":{"ha":724,"x_min":104,"x_max":621,"o":"m 104 422 l 104 486 q 242 549 172 549 q 362 516 288 549 q 478 483 436 483 q 621 550 549 483 l 621 486 q 478 424 551 424 q 359 456 433 424 q 242 489 285 489 q 104 422 175 489 m 104 271 l 104 333 q 242 397 172 397 q 362 364 288 397 q 478 331 436 331 q 621 399 549 331 l 621 335 q 478 272 553 272 q 359 305 433 272 q 242 338 285 338 q 104 271 175 338 z "},"≠":{"ha":724,"x_min":104,"x_max":621,"o":"m 104 469 l 104 526 l 421 526 l 517 650 l 579 650 l 483 526 l 621 526 l 621 469 l 439 469 l 347 350 l 621 350 l 621 293 l 303 293 l 207 168 l 144 168 l 240 293 l 104 293 l 104 350 l 285 350 l 376 469 l 104 469 z "},"≤":{"ha":554,"x_min":81,"x_max":463,"o":"m 81 428 l 81 492 l 463 651 l 463 588 l 151 460 l 463 332 l 463 268 l 81 428 m 81 154 l 81 214 l 463 214 l 463 154 l 81 154 z "},"≥":{"ha":554,"x_min":93,"x_max":474,"o":"m 474 492 l 474 428 l 93 268 l 93 332 l 403 460 l 93 588 l 93 651 l 474 492 m 474 214 l 474 154 l 93 154 l 93 214 l 474 214 z "},"ﬁ":{"ha":625,"x_min":31,"x_max":539,"o":"m 526 617 l 526 0 l 457 0 l 457 617 l 526 617 m 525 838 q 532 831 525 838 q 539 804 539 824 q 525 771 539 785 q 492 757 511 757 q 458 771 472 757 q 444 804 444 785 q 458 838 444 824 q 492 851 472 851 q 525 838 511 851 m 374 903 l 374 839 q 311 854 346 854 q 230 819 261 854 q 199 721 199 783 l 199 617 l 343 617 l 343 557 l 199 557 l 199 0 l 131 0 l 131 557 l 31 557 l 31 617 l 131 617 l 131 728 q 179 863 131 811 q 304 915 228 915 q 374 903 342 915 z "},"ﬂ":{"ha":625,"x_min":31,"x_max":526,"o":"m 526 903 l 526 0 l 457 0 l 457 903 l 526 903 m 374 903 l 374 839 q 311 854 346 854 q 230 819 261 854 q 199 721 199 783 l 199 617 l 343 617 l 343 557 l 199 557 l 199 0 l 131 0 l 131 557 l 31 557 l 31 617 l 131 617 l 131 728 q 179 863 131 811 q 304 915 228 915 q 374 903 342 915 z "}}}
